<svg width="577" height="589" viewBox="0 0 577 589" fill="none" xmlns="http://www.w3.org/2000/svg">
<g opacity="0.4" clip-path="url(#clip0_487_863)">
<path d="M578 308.371C577.035 308.371 576.069 308.635 575.104 308.679C568.874 308.869 562.636 309.037 556.392 309.183C555.81 309.131 555.225 309.25 554.71 309.527C554.195 309.804 553.773 310.227 553.496 310.742C547.485 320.64 541.387 330.495 535.332 340.35C535.047 340.854 534.806 341.381 534.389 342.171C535.31 342.171 535.968 342.171 536.582 342.171C548.012 341.864 559.419 341.513 570.848 341.272C571.477 341.319 572.104 341.174 572.649 340.856C573.193 340.539 573.629 340.064 573.898 339.494C575.17 337.299 576.618 335.104 577.978 332.756V335.916C576.859 337.672 575.784 339.406 574.665 341.25C574.422 341.744 574.033 342.153 573.55 342.419C573.068 342.686 572.515 342.799 571.967 342.742C560.267 343.02 548.567 343.335 536.868 343.686C535.222 343.686 533.577 343.686 531.734 343.686C531.909 343.219 532.114 342.765 532.349 342.325C539.105 331.351 545.906 320.377 552.619 309.249C552.889 308.726 553.304 308.292 553.813 307.996C554.322 307.701 554.904 307.557 555.492 307.581C563.017 307.428 570.519 307.208 578.044 307.01L578 308.371Z" fill="white" fill-opacity="0.1"/>
<path d="M578 63.2106C577.035 63.2106 576.07 63.474 575.104 63.4959C568.874 63.6935 562.644 63.891 556.392 64.0227C555.81 63.9701 555.225 64.0897 554.71 64.3667C554.196 64.6438 553.773 65.066 553.496 65.581C547.486 75.4796 541.387 85.3343 535.332 95.189C535.047 95.6719 534.806 96.2206 534.389 97.0107H536.583C548.012 96.7035 559.419 96.3523 570.849 96.0889C571.475 96.1378 572.101 95.9962 572.645 95.6829C573.189 95.3696 573.626 94.8991 573.898 94.3331C575.17 92.0285 576.618 89.8337 577.978 87.573V90.7336C576.859 92.5114 575.785 94.2453 574.666 96.067C574.418 96.5598 574.029 96.9674 573.548 97.2373C573.067 97.5071 572.517 97.627 571.967 97.5814C560.692 97.8448 549.416 98.174 538.14 98.4593C536.056 98.4593 533.95 98.4593 531.669 98.4593C531.884 97.9351 532.125 97.4223 532.393 96.9229C539.076 86.0367 545.76 75.1431 552.443 64.2422C552.739 63.6492 553.202 63.1562 553.776 62.8245C554.349 62.4928 555.007 62.3371 555.668 62.3766C563.105 62.2449 570.542 62.0254 577.978 61.8279L578 63.2106Z" fill="white" fill-opacity="0.1"/>
<path d="M578 501.164C576.53 498.815 575.016 496.511 573.612 494.14C573.422 493.783 573.137 493.486 572.789 493.28C572.441 493.075 572.042 492.97 571.638 492.977C559.616 492.692 547.507 492.34 535.551 492.033C535.264 492.059 534.978 492.103 534.696 492.165C534.824 492.643 535 493.106 535.222 493.548C541.343 503.556 547.507 513.542 553.628 523.551C553.858 524.016 554.22 524.403 554.669 524.664C555.117 524.926 555.632 525.05 556.15 525.021C563.434 525.153 570.739 525.35 578.088 525.548V527.348C577.21 527.348 576.311 527.084 575.433 527.04C568.742 526.843 562.073 526.645 555.383 526.514C554.869 526.561 554.353 526.457 553.897 526.216C553.441 525.974 553.065 525.605 552.816 525.153C545.928 513.872 539.018 502.605 532.085 491.353C531.948 491.084 531.831 490.805 531.734 490.519C532.293 490.42 532.857 490.362 533.424 490.343C546.257 490.672 559.09 491.046 571.923 491.353C572.551 491.323 573.174 491.48 573.713 491.805C574.252 492.129 574.682 492.605 574.951 493.174C575.894 494.843 577.035 496.401 578.088 498.003L578 501.164Z" fill="white" fill-opacity="0.1"/>
<path fill-rule="evenodd" clip-rule="evenodd" d="M578 553.532C577.035 553.642 576.07 553.817 575.105 553.839C568.874 554.037 562.644 554.234 556.392 554.344C555.808 554.296 555.223 554.42 554.708 554.701C554.194 554.982 553.773 555.407 553.496 555.924C547.486 565.801 541.387 575.678 535.354 585.532C535.047 586.015 534.806 586.542 534.411 587.332C535.464 587.332 536.276 587.332 537.066 587.332C548.254 587.025 559.441 586.695 570.651 586.432C571.352 586.489 572.053 586.331 572.661 585.978C573.269 585.625 573.754 585.094 574.052 584.457C575.258 582.262 576.662 580.067 578 577.872V581.033C576.881 582.811 575.807 584.545 574.688 586.366C574.444 586.861 574.055 587.269 573.573 587.536C573.09 587.803 572.538 587.916 571.99 587.859L538.162 588.759C536.078 588.759 533.972 588.759 531.713 588.759C531.88 588.306 532.077 587.866 532.305 587.442C539.062 576.468 545.862 565.494 552.575 554.366C552.846 553.843 553.26 553.409 553.769 553.113C554.278 552.818 554.861 552.674 555.449 552.698C562.973 552.544 570.476 552.325 578 552.149V553.532Z" fill="url(#paint0_linear_487_863)"/>
<path d="M578 256.003C576.531 253.655 575.017 251.35 573.613 248.98C573.423 248.622 573.138 248.325 572.79 248.12C572.441 247.914 572.043 247.809 571.639 247.816L535.552 246.851C535.264 246.887 534.979 246.938 534.697 247.004C534.825 247.482 535.001 247.945 535.223 248.387C541.343 258.373 547.508 268.36 553.628 278.39C553.861 278.853 554.224 279.239 554.672 279.5C555.119 279.761 555.633 279.886 556.151 279.861C563.434 279.992 570.739 280.19 578.088 280.365V282.187C577.123 282.077 576.158 281.902 575.192 281.88C568.611 281.682 562.03 281.485 555.449 281.353C554.936 281.398 554.42 281.293 553.965 281.051C553.51 280.81 553.134 280.442 552.882 279.992C545.994 268.711 539.084 257.444 532.152 246.192C532.152 246.017 531.976 245.775 531.801 245.402C532.201 245.283 532.613 245.21 533.029 245.183C546.192 245.512 559.156 245.885 572.209 246.192C572.764 246.175 573.313 246.319 573.788 246.608C574.263 246.896 574.644 247.316 574.885 247.816C575.894 249.528 577.079 251.174 578.154 252.842L578 256.003Z" fill="white" fill-opacity="0.1"/>
<path d="M578 378.803C576.639 376.608 575.192 374.413 573.919 372.065C573.652 371.495 573.216 371.021 572.671 370.707C572.125 370.393 571.497 370.254 570.87 370.309C564.026 370.177 557.203 369.98 550.359 369.782C545.62 369.672 540.882 369.519 536.165 369.387C535.661 369.387 535.178 369.387 534.41 369.387C534.871 370.243 535.2 370.88 535.573 371.582C541.511 381.239 547.441 390.911 553.364 400.597C553.639 401.158 554.072 401.626 554.611 401.942C555.149 402.258 555.768 402.409 556.391 402.375C562.183 402.375 567.974 402.638 573.744 402.814C575.17 402.814 576.574 403.055 578 403.165V404.526L555.448 403.955C554.894 404.007 554.338 403.895 553.846 403.633C553.355 403.372 552.951 402.973 552.684 402.485C545.862 391.247 538.951 380.054 532.063 368.86C531.91 368.597 531.8 368.355 531.559 367.895C532.03 367.809 532.506 367.758 532.985 367.741C545.971 368.092 558.98 368.487 571.967 368.794C572.557 368.756 573.145 368.897 573.654 369.199C574.162 369.5 574.568 369.948 574.819 370.484C575.806 372.24 577.012 373.908 578 375.62V378.803Z" fill="white" fill-opacity="0.1"/>
<path fill-rule="evenodd" clip-rule="evenodd" d="M578 431.171C570.783 431.369 563.565 431.566 556.348 431.698C555.795 431.649 555.239 431.762 554.748 432.023C554.258 432.284 553.853 432.682 553.584 433.168C547.485 443.199 541.321 453.185 535.179 463.171C534.959 463.545 534.806 463.94 534.499 464.532C534.992 464.62 535.49 464.679 535.99 464.708C547.793 464.4 559.595 464.049 571.397 463.764C571.874 463.786 572.348 463.669 572.76 463.427C573.173 463.186 573.507 462.83 573.722 462.403C575.082 460.077 576.574 457.838 578 455.555V458.716C576.912 460.21 575.909 461.763 574.995 463.369C574.679 464.038 574.163 464.592 573.519 464.954C572.874 465.316 572.132 465.468 571.397 465.388C564.816 465.388 558.235 465.717 551.807 465.893L534.016 466.376C533.292 466.376 532.568 466.376 531.537 466.376C531.976 465.542 532.261 464.971 532.59 464.422C539.171 453.602 545.906 442.804 552.487 431.961C552.764 431.399 553.202 430.932 553.745 430.619C554.288 430.307 554.911 430.162 555.536 430.205C562.118 430.096 568.699 429.876 575.28 429.679C576.157 429.679 577.057 429.481 577.934 429.371L578 431.171Z" fill="url(#paint1_linear_487_863)"/>
<path d="M578 133.642C576.64 131.447 575.192 129.253 573.92 126.904C573.653 126.332 573.218 125.855 572.673 125.537C572.128 125.22 571.499 125.076 570.87 125.126C563.96 125.017 557.05 124.797 550.14 124.621L536.166 124.204C535.661 124.204 535.179 124.204 534.433 124.204C534.85 124.995 535.113 125.587 535.464 126.158C541.431 135.881 547.442 145.604 553.365 155.371C553.639 155.932 554.073 156.399 554.611 156.715C555.149 157.031 555.769 157.182 556.392 157.149C562.183 157.149 567.975 157.412 573.744 157.588C575.17 157.588 576.574 157.807 578 157.939V159.278C570.476 159.102 562.973 158.883 555.449 158.729C554.896 158.775 554.341 158.66 553.851 158.4C553.361 158.139 552.956 157.743 552.685 157.258C545.862 146.021 538.952 134.827 532.064 123.612C531.885 123.299 531.724 122.977 531.581 122.646C532.217 122.646 532.722 122.493 533.204 122.514C546.06 122.866 558.893 123.261 571.748 123.546C572.41 123.498 573.071 123.656 573.64 123.997C574.21 124.339 574.66 124.848 574.929 125.456C575.85 127.146 576.969 128.748 578 130.394V133.642Z" fill="white" fill-opacity="0.1"/>
<path fill-rule="evenodd" clip-rule="evenodd" d="M578 186.01C570.783 186.186 563.565 186.384 556.348 186.537C555.795 186.489 555.239 186.602 554.748 186.863C554.258 187.124 553.853 187.521 553.584 188.008C547.485 198.038 541.321 208.002 535.179 218.011C534.959 218.384 534.806 218.779 534.499 219.372C535.157 219.372 535.574 219.547 535.99 219.547L571.397 218.581C571.875 218.609 572.351 218.494 572.765 218.252C573.178 218.01 573.511 217.651 573.722 217.221C575.082 215.026 576.574 212.677 578 210.395V213.555C576.917 215.045 575.914 216.591 574.995 218.186C574.685 218.862 574.171 219.423 573.526 219.789C572.88 220.155 572.135 220.309 571.397 220.228C564.816 220.228 558.235 220.557 551.807 220.732L534.016 221.215H531.537C531.976 220.381 532.261 219.789 532.59 219.24C539.171 208.419 545.906 197.621 552.487 186.779C552.769 186.22 553.207 185.756 553.749 185.444C554.291 185.132 554.912 184.986 555.536 185.023C562.118 185.023 568.699 184.715 575.28 184.518C576.157 184.518 577.057 184.32 577.934 184.211L578 186.01Z" fill="url(#paint2_linear_487_863)"/>
<path fill-rule="evenodd" clip-rule="evenodd" d="M297.972 86.4756C297.468 85.6197 297.095 85.049 296.788 84.4564C290.733 73.2848 284.722 62.1132 278.646 50.9636C278.345 50.5034 278.186 49.9657 278.186 49.4162C278.186 48.8667 278.345 48.3291 278.646 47.8689C284.92 36.39 291.106 24.8672 297.336 13.3664C297.511 13.0592 297.731 12.7519 298.038 12.2471C298.433 12.8397 298.784 13.2786 299.047 13.7615C305.175 25.0721 311.295 36.3754 317.409 47.6714C317.735 48.1153 317.923 48.6454 317.95 49.1956C317.978 49.7458 317.843 50.292 317.562 50.766C311.288 62.223 305.058 73.7165 298.872 85.2466L297.972 86.4756ZM297.972 15.4515C297.577 16.0441 297.292 16.3953 297.095 16.7684C291.457 27.1499 285.863 37.5533 280.203 47.9128C279.928 48.3458 279.782 48.8482 279.782 49.3614C279.782 49.8745 279.928 50.3769 280.203 50.8099C285.819 61.1256 291.413 71.4412 296.985 81.7568C297.255 82.2082 297.556 82.6408 297.884 83.0517C298.148 82.6567 298.345 82.4372 298.499 82.1738C304.188 71.6533 309.884 61.1402 315.588 50.6344C315.851 50.1903 315.977 49.6782 315.95 49.1625C315.923 48.6468 315.743 48.1508 315.434 47.7372C311.573 40.6699 307.742 33.5953 303.939 26.5134C302.14 22.9358 300.188 19.3802 298.06 15.4515H297.972Z" fill="url(#paint3_linear_487_863)"/>
<path d="M510.565 12.1812C511.047 13.0152 511.398 13.5859 511.728 14.1785C517.716 25.2842 523.705 36.4119 529.76 47.4738C530.119 48.0258 530.31 48.67 530.31 49.3284C530.31 49.9868 530.119 50.6311 529.76 51.183C523.683 62.1571 517.716 73.3726 511.706 84.4783L510.565 86.3878C510.187 85.8873 509.835 85.3671 509.512 84.8295C503.391 73.5482 497.293 62.2229 491.172 50.9416C490.862 50.53 490.678 50.0369 490.643 49.5224C490.608 49.008 490.723 48.4944 490.975 48.0445C497.293 36.4412 503.596 24.8087 509.885 13.1469C509.995 12.9055 510.236 12.6641 510.565 12.1812ZM510.565 83.2054C511.069 82.3274 511.42 81.7787 511.749 81.1861C517.146 71.1997 522.521 61.1914 527.983 51.2269C528.364 50.6469 528.567 49.9678 528.567 49.2736C528.567 48.5793 528.364 47.9003 527.983 47.3202C522.521 37.3557 517.146 27.3693 511.728 17.3829C511.42 16.7903 511.047 16.2416 510.609 15.4734C510.148 16.2197 509.775 16.7903 509.468 17.361C504.028 27.4132 498.631 37.4874 493.125 47.5177C492.761 48.0676 492.567 48.7127 492.567 49.3723C492.567 50.032 492.761 50.677 493.125 51.2269C498.587 61.1914 503.962 71.1778 509.358 81.1642C509.665 81.7568 509.994 82.3274 510.543 83.2054H510.565Z" fill="white" fill-opacity="0.1"/>
<path d="M85.4671 502.59C85.8839 503.249 86.213 503.753 86.4982 504.258C92.5748 515.496 98.6294 526.755 104.75 537.971C105.067 538.461 105.236 539.033 105.236 539.617C105.236 540.201 105.067 540.773 104.75 541.263C98.5636 552.603 92.4066 563.965 86.2788 575.348C86.0814 575.743 85.8181 576.116 85.4671 576.687C85.1313 576.279 84.8165 575.854 84.5238 575.414C78.3375 563.986 72.1513 552.559 65.965 541.131C65.6836 540.743 65.5195 540.282 65.4923 539.804C65.4651 539.325 65.5759 538.849 65.8114 538.432C72.1732 526.726 78.513 515.02 84.8309 503.314C85.0283 503.061 85.2408 502.819 85.4671 502.59ZM85.4671 573.483C85.9059 572.758 86.2788 572.21 86.5859 571.639C92.0263 561.587 97.5545 551.513 102.951 541.482C103.315 540.932 103.509 540.287 103.509 539.628C103.509 538.968 103.315 538.323 102.951 537.773C97.4667 527.765 91.9824 517.691 86.6078 507.638C86.3007 507.068 85.9278 506.541 85.4891 505.839L84.3483 507.77C78.9298 517.756 73.5772 527.765 68.0929 537.729C67.717 538.311 67.517 538.99 67.517 539.683C67.517 540.376 67.717 541.054 68.0929 541.636C73.5772 551.578 78.9298 561.587 84.3483 571.573C84.5896 572.166 84.9626 572.736 85.4232 573.483H85.4671Z" fill="white" fill-opacity="0.1"/>
<path d="M510.543 502.502C511.004 503.271 511.333 503.753 511.596 504.28C517.666 515.518 523.749 526.755 529.848 537.993C530.177 538.435 530.367 538.966 530.394 539.517C530.421 540.067 530.285 540.614 530.001 541.087C523.727 552.566 517.541 564.067 511.311 575.568C511.136 575.897 510.916 576.204 510.587 576.709C510.217 576.223 509.872 575.718 509.556 575.195C503.428 563.884 497.308 552.588 491.195 541.307C490.876 540.854 490.696 540.318 490.677 539.765C490.657 539.211 490.799 538.664 491.085 538.19C497.359 526.733 503.545 515.21 509.775 503.71C509.995 503.38 510.17 503.095 510.543 502.502ZM510.543 505.773C510.061 506.607 509.688 507.177 509.381 507.77C503.962 517.756 498.587 527.765 493.125 537.707C492.749 538.289 492.549 538.968 492.549 539.661C492.549 540.354 492.749 541.032 493.125 541.614C498.587 551.578 503.962 561.587 509.381 571.573C509.688 572.144 510.061 572.715 510.521 573.483C510.96 572.758 511.333 572.232 511.64 571.661C517.08 561.609 522.499 551.535 528.005 541.504C528.364 540.952 528.555 540.308 528.555 539.65C528.555 538.991 528.364 538.347 528.005 537.795C522.477 527.699 517.037 517.559 511.552 507.441C511.289 506.98 511.004 506.541 510.543 505.773Z" fill="white" fill-opacity="0.1"/>
<path fill-rule="evenodd" clip-rule="evenodd" d="M510.543 257.32C511.048 258.176 511.399 258.747 511.706 259.339C517.717 270.445 523.706 281.551 529.76 292.634C530.12 293.182 530.311 293.823 530.311 294.478C530.311 295.133 530.12 295.774 529.76 296.322C523.706 307.296 517.717 318.511 511.706 329.617C511.399 330.21 511.026 330.78 510.565 331.57C510.148 330.934 509.797 330.517 509.534 330.012C503.406 318.716 497.286 307.42 491.173 296.124C490.861 295.673 490.685 295.141 490.666 294.593C490.646 294.045 490.784 293.502 491.063 293.029C497.337 281.543 503.574 270.042 509.775 258.527C509.995 258.22 510.17 257.912 510.543 257.32ZM510.543 260.612C510.039 261.446 509.688 262.017 509.381 262.609C503.962 272.596 498.587 282.604 493.125 292.547C492.749 293.129 492.549 293.807 492.549 294.5C492.549 295.193 492.749 295.871 493.125 296.453C498.566 306.352 503.896 316.207 509.271 326.215C509.622 326.852 510.017 327.488 510.499 328.41C510.96 327.664 511.333 327.115 511.64 326.544C517.08 316.492 522.499 306.418 528.005 296.41C528.359 295.856 528.547 295.212 528.547 294.555C528.547 293.898 528.359 293.254 528.005 292.7C522.499 282.67 517.037 272.596 511.662 262.544C511.355 261.951 511.026 261.49 510.543 260.612Z" fill="url(#paint4_linear_487_863)"/>
<path d="M297.973 502.459C298.455 503.315 298.85 503.929 299.201 504.653C305.183 515.759 311.193 526.858 317.233 537.949C317.582 538.424 317.784 538.991 317.815 539.58C317.846 540.168 317.705 540.753 317.409 541.263C311.179 552.654 305.014 564.111 298.828 575.524C298.609 575.919 298.345 576.27 297.951 576.863C297.49 576.073 297.095 575.458 296.744 574.822C290.777 563.847 284.832 552.72 278.799 541.724C278.424 541.142 278.224 540.463 278.224 539.77C278.224 539.077 278.424 538.399 278.799 537.817C284.832 526.843 290.777 515.759 296.744 504.719L297.973 502.459ZM297.973 505.773C297.49 506.629 297.161 507.112 296.876 507.638C291.435 517.691 286.017 527.765 280.532 537.795C280.168 538.345 279.974 538.99 279.974 539.65C279.974 540.309 280.168 540.954 280.532 541.504C286.017 551.535 291.501 561.609 296.876 571.661C297.183 572.232 297.556 572.758 297.994 573.483C298.455 572.714 298.828 572.144 299.135 571.573C304.554 561.587 309.906 551.578 315.391 541.614C315.767 541.032 315.966 540.354 315.966 539.661C315.966 538.968 315.767 538.289 315.391 537.707C309.928 527.743 304.554 517.756 299.135 507.748C298.828 507.177 298.455 506.607 297.973 505.773Z" fill="white" fill-opacity="0.1"/>
<path d="M404.258 392.828C403.71 391.928 403.315 391.313 402.964 390.633C397.041 379.629 391.096 368.655 385.129 357.711C384.748 357.126 384.546 356.444 384.546 355.746C384.546 355.049 384.748 354.366 385.129 353.782C391.118 342.808 397.019 331.834 402.964 320.86C403.315 320.201 403.71 319.587 404.214 318.665C404.609 319.258 404.938 319.653 405.157 320.07C411.271 331.38 417.391 342.683 423.519 353.979C423.844 354.428 424.032 354.961 424.059 355.515C424.086 356.068 423.952 356.618 423.672 357.096C417.398 368.568 411.161 380.068 404.96 391.599C404.828 391.994 404.697 392.235 404.258 392.828ZM404.258 389.513C404.719 388.767 405.026 388.35 405.267 387.911C410.773 377.727 416.236 367.521 421.83 357.359C422.146 356.865 422.315 356.29 422.315 355.702C422.315 355.115 422.146 354.54 421.83 354.045C416.331 343.949 410.847 333.838 405.377 323.713C405.114 323.23 404.741 322.769 404.324 322.155C403.951 322.725 403.688 323.076 403.49 323.45C397.94 333.699 392.412 343.971 386.818 354.177C386.496 354.67 386.325 355.245 386.325 355.834C386.325 356.423 386.496 356.998 386.818 357.491C392.288 367.514 397.735 377.559 403.161 387.626C403.424 388.175 403.732 388.789 404.236 389.513H404.258Z" fill="white" fill-opacity="0.1"/>
<path d="M297.972 257.342C298.433 258.088 298.762 258.571 299.047 259.098C305.131 270.335 311.207 281.573 317.276 292.81C317.609 293.25 317.806 293.777 317.841 294.328C317.876 294.878 317.748 295.426 317.474 295.905C311.156 307.449 304.926 319.016 298.652 330.583C298.464 330.894 298.259 331.194 298.038 331.483C297.687 331 297.358 330.649 297.116 330.253C290.93 318.811 284.736 307.376 278.536 295.949C278.252 295.519 278.102 295.015 278.102 294.5C278.102 293.985 278.252 293.481 278.536 293.051C284.78 281.58 291.01 270.086 297.226 258.571C297.401 258.242 297.599 257.934 297.972 257.342ZM297.972 328.366C298.476 327.532 298.827 326.961 299.156 326.391C304.553 316.404 309.928 306.396 315.39 296.431C315.777 295.853 315.983 295.174 315.983 294.478C315.983 293.783 315.777 293.103 315.39 292.525C309.928 282.56 304.553 272.552 299.156 262.565L298.016 260.656C297.577 261.38 297.204 261.929 296.897 262.5C291.456 272.552 286.038 282.626 280.532 292.656C280.172 293.204 279.981 293.845 279.981 294.5C279.981 295.155 280.172 295.796 280.532 296.344C286.016 306.374 291.5 316.448 296.875 326.5C297.204 327.027 297.489 327.532 297.972 328.366Z" fill="white" fill-opacity="0.1"/>
<path d="M210.816 108.643C211.202 109.221 211.409 109.901 211.409 110.597C211.409 111.292 211.202 111.972 210.816 112.55M209.39 111.892C209.648 111.489 209.785 111.02 209.785 110.542C209.785 110.063 209.648 109.595 209.39 109.192" fill="white" fill-opacity="0.1"/>
<path fill-rule="evenodd" clip-rule="evenodd" d="M404.214 147.623C403.753 146.855 403.446 146.35 403.161 145.823C397.106 134.644 391.037 123.451 384.953 112.243C384.631 111.75 384.46 111.174 384.46 110.586C384.46 109.997 384.631 109.421 384.953 108.929C391.096 97.6472 397.194 86.3439 403.337 75.0407C403.556 74.6017 403.863 74.1847 404.258 73.5701C404.741 74.3383 405.113 74.8651 405.421 75.4357C411.431 86.5415 417.442 97.6472 423.453 108.753C423.799 109.188 424.01 109.715 424.061 110.269C424.111 110.822 423.999 111.379 423.738 111.87C417.42 123.48 411.278 135.069 404.916 146.635C404.701 146.978 404.467 147.308 404.214 147.623ZM404.214 76.9501C403.775 77.6305 403.446 78.1134 403.183 78.5962C397.699 88.7143 392.214 98.8544 386.708 108.929C386.381 109.464 386.217 110.084 386.236 110.712C386.256 111.339 386.458 111.948 386.818 112.462C392.258 122.427 397.633 132.413 403.051 142.399C403.358 142.97 403.731 143.497 404.192 144.265C404.653 143.585 404.982 143.124 405.267 142.619C410.737 132.508 416.236 122.383 421.764 112.243C422.092 111.711 422.257 111.095 422.237 110.47C422.218 109.846 422.015 109.241 421.654 108.731C416.214 98.7666 410.839 88.7582 405.421 78.7938C405.113 78.267 404.697 77.7183 404.258 76.9501H404.214Z" fill="url(#paint5_linear_487_863)"/>
<path fill-rule="evenodd" clip-rule="evenodd" d="M276.869 466.376C275.882 466.376 275.136 466.376 274.39 466.376C261.93 466.047 249.447 465.673 237.097 465.388C236.383 465.438 235.67 465.277 235.046 464.926C234.422 464.575 233.915 464.049 233.587 463.413C227.006 452.68 220.425 442.013 213.843 431.303C213.492 430.754 213.163 430.161 212.725 429.371C213.227 429.238 213.741 429.157 214.26 429.13L253.243 430.205C253.721 430.154 254.203 430.243 254.632 430.461C255.06 430.679 255.416 431.017 255.656 431.434C262.588 442.789 269.542 454.129 276.518 465.454C276.658 465.752 276.776 466.06 276.869 466.376ZM215.576 430.776C215.862 431.369 215.971 431.698 216.147 432.005C222.406 442.248 228.658 452.431 234.903 462.557C235.105 462.954 235.423 463.28 235.815 463.492C236.207 463.703 236.654 463.791 237.097 463.742L272.196 464.708C272.701 464.708 273.205 464.708 273.907 464.576C273.622 463.94 273.447 463.457 273.205 463.04C267.107 453.119 260.964 443.286 254.932 433.256C254.643 432.741 254.212 432.321 253.691 432.044C253.17 431.768 252.58 431.648 251.992 431.698L217.968 430.798L215.576 430.776Z" fill="url(#paint6_linear_487_863)"/>
<path d="M277.022 221.215H274.719C262.105 220.886 249.491 220.513 236.856 220.206C236.233 220.263 235.607 220.138 235.053 219.846C234.5 219.553 234.044 219.107 233.74 218.559C227.028 207.498 220.271 196.48 213.471 185.506C213.251 185.132 213.076 184.737 212.769 184.123C213.383 184.123 213.8 183.969 214.216 183.969C227.203 184.335 240.197 184.694 253.199 185.045C253.749 185.013 254.296 185.141 254.775 185.413C255.254 185.686 255.644 186.092 255.897 186.581C262.654 197.687 269.447 208.771 276.277 219.832C276.474 220.14 276.628 220.469 277.022 221.215ZM274.017 219.372C273.666 218.713 273.469 218.252 273.205 217.835C267.129 207.915 261.008 198.082 254.954 188.052C254.694 187.559 254.296 187.153 253.809 186.884C253.322 186.615 252.766 186.494 252.212 186.537L217.507 185.615C216.959 185.615 216.388 185.615 215.62 185.615C215.84 186.164 215.928 186.449 216.059 186.691C222.355 196.941 228.673 207.168 234.925 217.418C235.134 217.807 235.455 218.124 235.846 218.328C236.237 218.531 236.681 218.612 237.119 218.559L272.218 219.503C272.82 219.507 273.422 219.463 274.017 219.372Z" fill="white" fill-opacity="0.1"/>
<path fill-rule="evenodd" clip-rule="evenodd" d="M489.572 466.354C488.102 466.354 487.005 466.354 485.886 466.354C473.865 466.025 461.865 465.652 449.844 465.41C449.047 465.461 448.253 465.281 447.557 464.892C446.86 464.502 446.291 463.92 445.917 463.215C439.511 452.592 432.974 442.057 426.48 431.478C426.108 430.864 425.779 430.227 425.296 429.283C426.042 429.283 426.524 429.152 427.007 429.174C439.862 429.525 452.71 429.876 465.551 430.227C466.135 430.179 466.721 430.3 467.239 430.576C467.756 430.853 468.183 431.273 468.468 431.786C475.181 442.847 481.93 453.873 488.716 464.861C488.958 465.213 489.155 465.608 489.572 466.354ZM427.972 430.82L448.067 463.523C453.573 464.247 484.482 464.883 486.457 464.291C486.128 463.698 485.82 463.106 485.491 462.557C479.59 452.944 473.645 443.352 467.832 433.717C467.503 433.058 466.985 432.511 466.344 432.148C465.703 431.784 464.969 431.62 464.234 431.676C453.639 431.456 443.043 431.127 432.469 430.842C431.022 430.798 429.771 430.82 427.972 430.82Z" fill="url(#paint7_linear_487_863)"/>
<path d="M191.731 318.797C192.235 319.631 192.63 320.245 192.981 320.882C198.926 331.856 204.827 342.83 210.816 353.804C211.197 354.384 211.4 355.063 211.4 355.757C211.4 356.452 211.197 357.131 210.816 357.711C204.805 368.685 198.904 379.659 192.959 390.633C192.608 391.269 192.235 391.906 191.709 392.828C191.292 392.169 190.941 391.73 190.678 391.247C184.579 380.01 178.488 368.773 172.404 357.535C172.079 357.087 171.891 356.553 171.864 356C171.837 355.446 171.971 354.897 172.251 354.418C178.481 343.005 184.674 331.57 190.831 320.114C191.073 319.675 191.358 319.345 191.731 318.797ZM191.731 322.133C191.358 322.681 191.073 323.033 190.875 323.406C185.303 333.721 179.731 344.059 174.093 354.331C173.814 354.809 173.679 355.358 173.707 355.912C173.734 356.465 173.922 356.999 174.247 357.447L190.678 387.802C190.963 388.306 191.292 388.767 191.731 389.426C192.03 389.016 192.308 388.591 192.564 388.153C198.158 377.837 203.708 367.521 209.346 357.228C209.629 356.752 209.767 356.203 209.744 355.65C209.721 355.096 209.537 354.562 209.215 354.111C203.708 344.015 198.246 333.875 192.762 323.779C192.477 323.274 192.126 322.813 191.709 322.133H191.731Z" fill="white" fill-opacity="0.1"/>
<path fill-rule="evenodd" clip-rule="evenodd" d="M106.461 490.365H110.102C122.058 490.694 133.992 491.068 145.926 491.309C146.767 491.257 147.606 491.449 148.341 491.862C149.076 492.274 149.677 492.89 150.072 493.635C156.478 504.258 163.015 514.793 169.486 525.372C169.881 525.987 170.188 526.623 170.671 527.567C169.903 527.567 169.399 527.699 168.916 527.677C156.061 527.326 143.228 526.931 130.394 526.601C129.846 526.668 129.29 526.573 128.794 526.327C128.299 526.082 127.887 525.696 127.608 525.219C120.764 513.981 113.854 502.788 106.987 491.572C106.785 491.182 106.609 490.779 106.461 490.365ZM109.422 492.165C109.817 492.933 110.081 493.504 110.41 494.052C116.377 503.797 122.387 513.52 128.31 523.287C128.598 523.84 129.038 524.3 129.579 524.611C130.119 524.922 130.737 525.072 131.36 525.043C142.701 525.307 154.043 525.636 165.384 525.943H167.775C167.614 525.528 167.424 525.124 167.205 524.736C160.975 514.552 154.701 504.368 148.471 494.184C148.272 493.783 147.955 493.452 147.563 493.237C147.171 493.021 146.722 492.93 146.277 492.977L110.958 491.945C110.442 491.984 109.929 492.058 109.422 492.165Z" fill="url(#paint8_linear_487_863)"/>
<path fill-rule="evenodd" clip-rule="evenodd" d="M383.198 37.1801C382.723 37.2041 382.247 37.2041 381.772 37.1801C368.785 36.8143 355.791 36.4559 342.79 36.1047C342.239 36.1395 341.691 36.0127 341.211 35.7398C340.732 35.4668 340.343 35.0596 340.092 34.5683C333.276 23.4333 326.439 12.3202 319.58 1.22911C319.414 0.931562 319.268 0.623653 319.142 0.307286C319.625 0.191082 320.116 0.110392 320.611 0.0658569L359.374 1.09742C359.928 1.05334 360.482 1.16578 360.975 1.42191C361.468 1.67804 361.878 2.06755 362.16 2.546C368.983 13.7834 375.893 24.977 382.781 36.1705C382.759 36.3461 382.935 36.6314 383.198 37.1801ZM380.566 35.6218L360.427 2.83132C353.232 2.01924 323.902 1.47054 322.103 2.12898C322.205 2.40236 322.33 2.66667 322.476 2.91911C328.684 13.0372 334.914 23.1553 341.079 33.2953C341.361 33.7746 341.777 34.1608 342.276 34.4065C342.775 34.6522 343.335 34.7466 343.887 34.6781L378.131 35.6218H380.566Z" fill="url(#paint9_linear_487_863)"/>
<path d="M64.6708 490.343L61.1389 496.138C55.3256 505.597 49.4684 515.079 43.5892 524.67C43.2736 525.286 42.787 525.798 42.1877 526.145C41.5885 526.491 40.9021 526.657 40.2109 526.623C27.4435 526.931 14.6761 527.326 1.90864 527.677H0.373047C0.472519 527.234 0.612024 526.8 0.78985 526.382C7.63424 515.232 14.5006 504.127 21.3011 492.955C21.6009 492.443 22.0415 492.028 22.5705 491.759C23.0995 491.491 23.6945 491.38 24.2845 491.441C33.3665 491.236 42.4558 491.009 51.5524 490.76L61.9067 490.453L64.6708 490.343ZM3.02744 525.833C3.57587 525.833 3.79524 525.965 4.01461 525.965L40.0573 524.999C40.5214 524.985 40.9723 524.842 41.3598 524.587C41.7472 524.331 42.0558 523.972 42.2511 523.551C48.3788 513.542 54.5066 503.549 60.6344 493.57C60.8902 493.079 61.096 492.565 61.2486 492.033H59.0549C47.6257 492.34 36.2183 492.67 24.7891 492.933C24.2051 492.914 23.628 493.063 23.1263 493.363C22.6246 493.662 22.2195 494.1 21.9592 494.623C16.0069 504.397 10.04 514.135 4.05849 523.836C3.77331 524.429 3.48812 525.021 3.02744 525.833Z" fill="white" fill-opacity="0.1"/>
<path fill-rule="evenodd" clip-rule="evenodd" d="M318.9 221.127L327.105 207.717C331.405 200.738 335.697 193.758 339.982 186.779C340.19 186.268 340.545 185.831 341.002 185.522C341.459 185.213 341.997 185.047 342.549 185.045C355.711 184.737 368.873 184.342 382.036 183.969C382.321 183.969 382.628 183.969 383.11 183.969C382.955 184.468 382.757 184.953 382.518 185.418C375.761 196.421 369.005 207.432 362.248 218.45C362.01 218.952 361.634 219.375 361.164 219.671C360.694 219.966 360.149 220.121 359.594 220.118C346.432 220.425 333.445 220.798 320.37 221.149C319.975 221.237 319.624 221.171 318.9 221.127ZM380.324 185.703C379.776 185.703 379.535 185.703 379.315 185.703L343.273 186.559C342.806 186.575 342.354 186.721 341.966 186.981C341.578 187.241 341.271 187.604 341.079 188.03C334.958 198.016 328.794 208.002 322.674 217.989C322.439 218.486 322.241 218.999 322.081 219.525C322.915 219.525 323.507 219.525 324.099 219.525C335.595 219.218 347.09 218.867 358.585 218.603C359.171 218.621 359.75 218.468 360.252 218.165C360.754 217.861 361.157 217.419 361.415 216.891C367.411 207.073 373.422 197.277 379.447 187.503C379.732 186.998 379.973 186.471 380.39 185.703H380.324Z" fill="url(#paint10_linear_487_863)"/>
<path d="M425.317 527.479C425.646 526.821 425.844 526.36 426.107 525.943C432.82 514.969 439.577 503.995 446.267 493.021C446.529 492.491 446.937 492.047 447.442 491.74C447.947 491.433 448.528 491.276 449.119 491.287C462.106 490.98 475.093 490.607 488.102 490.277C488.532 490.249 488.965 490.249 489.396 490.277C489.212 490.772 489 491.256 488.76 491.726C481.988 502.744 475.232 513.762 468.49 524.78C468.215 525.299 467.794 525.727 467.28 526.012C466.766 526.296 466.18 526.425 465.594 526.382C452.739 526.711 439.906 527.106 427.05 527.457C426.634 527.611 426.063 527.523 425.317 527.479ZM428.016 525.855C428.718 525.855 429.003 525.965 429.31 525.965C441.244 525.628 453.185 525.314 465.133 525.021C465.649 525.009 466.15 524.85 466.577 524.562C467.005 524.274 467.341 523.87 467.546 523.397C473.601 513.52 479.656 503.658 485.71 493.811C486.035 493.205 486.328 492.582 486.588 491.945L448.198 492.999L428.016 525.855Z" fill="white" fill-opacity="0.1"/>
<path fill-rule="evenodd" clip-rule="evenodd" d="M425.317 184.101C425.997 184.101 426.414 183.969 426.831 183.969C439.818 184.335 452.812 184.694 465.813 185.045C466.327 185.011 466.84 185.126 467.291 185.375C467.742 185.624 468.112 185.997 468.358 186.449C475.159 197.628 481.996 208.771 488.869 219.876C489.067 220.206 489.198 220.535 489.484 221.084C488.88 221.165 488.272 221.209 487.663 221.215C474.895 220.886 462.106 220.513 449.339 220.206C448.716 220.251 448.093 220.113 447.547 219.809C447.002 219.505 446.557 219.048 446.267 218.494C439.613 207.563 432.937 196.67 426.239 185.813C425.932 185.33 425.69 184.803 425.317 184.101ZM486.5 219.394C486.295 218.876 486.061 218.37 485.798 217.879C479.7 207.959 473.579 198.126 467.524 188.095C467.24 187.577 466.81 187.153 466.288 186.876C465.765 186.599 465.173 186.481 464.585 186.537C453.243 186.252 441.902 185.923 430.56 185.615C429.836 185.615 429.134 185.615 428.147 185.615C428.308 186.028 428.491 186.431 428.696 186.823C434.948 197.028 441.222 207.19 447.452 217.396C447.667 217.782 447.988 218.098 448.377 218.308C448.765 218.518 449.205 218.613 449.646 218.581L485.03 219.547C485.447 219.547 485.864 219.459 486.5 219.394Z" fill="url(#paint11_linear_487_863)"/>
<path d="M489.528 245.248C489.067 246.082 488.76 246.675 488.431 247.224C481.85 257.978 475.268 268.733 468.687 279.509C468.385 280.097 467.92 280.585 467.349 280.916C466.777 281.247 466.122 281.406 465.462 281.375C452.695 281.66 439.928 282.055 427.16 282.429C426.656 282.429 426.151 282.429 425.405 282.429C425.612 281.908 425.854 281.402 426.129 280.914C432.842 269.955 439.562 258.981 446.289 247.992C446.54 247.459 446.937 247.009 447.435 246.694C447.932 246.379 448.509 246.212 449.097 246.214C462.26 245.907 475.246 245.534 488.321 245.183L489.528 245.248ZM448.176 247.838C441.595 258.812 434.816 269.611 427.994 280.76C428.491 280.793 428.989 280.793 429.486 280.76C441.354 280.453 453.222 280.102 465.09 279.839C465.606 279.83 466.108 279.675 466.54 279.391C466.971 279.108 467.312 278.707 467.525 278.236C473.601 268.294 479.722 258.483 485.82 248.453C486.061 248.036 486.215 247.553 486.566 246.763L448.176 247.838Z" fill="white" fill-opacity="0.1"/>
<path fill-rule="evenodd" clip-rule="evenodd" d="M319.142 490.343C320.041 490.343 320.633 490.343 321.335 490.343C333.949 490.694 346.563 491.046 359.177 491.331C359.874 491.297 360.565 491.466 361.168 491.816C361.772 492.167 362.261 492.684 362.577 493.306C369.158 504.171 375.739 514.969 382.496 525.789C382.781 526.228 383.023 526.689 383.395 527.348C382.886 527.483 382.364 527.563 381.838 527.589C368.851 527.238 355.864 526.843 342.856 526.514C342.377 526.552 341.897 526.455 341.47 526.234C341.043 526.013 340.687 525.676 340.443 525.263C333.554 513.981 326.644 502.715 319.712 491.463C319.497 491.102 319.307 490.728 319.142 490.343ZM380.566 525.899C380.302 525.329 380.215 525.065 380.061 524.802C373.816 514.559 367.564 504.375 361.305 494.25C361.074 493.832 360.728 493.49 360.308 493.264C359.887 493.038 359.411 492.939 358.936 492.977C347.309 492.692 335.66 492.34 324.012 492.033C323.463 492.033 322.915 492.143 322.125 492.209C322.63 493.109 322.959 493.745 323.332 494.404C329.189 503.929 335.09 513.455 340.881 522.936C341.214 523.594 341.732 524.14 342.371 524.507C343.011 524.873 343.743 525.044 344.479 524.999C355.14 525.219 365.802 525.548 376.463 525.833C377.538 525.943 378.811 525.899 380.368 525.899H380.566Z" fill="url(#paint12_linear_487_863)"/>
<path d="M170.78 429.262L161.72 444.033C157.706 450.617 153.669 457.07 149.699 463.632C149.447 464.166 149.045 464.614 148.542 464.922C148.04 465.23 147.458 465.384 146.869 465.366C133.86 465.673 120.873 466.047 107.886 466.398H106.526C106.833 465.761 107.031 465.235 107.316 464.774C114.029 453.8 120.786 442.825 127.476 431.851C127.745 431.33 128.16 430.898 128.67 430.609C129.181 430.321 129.765 430.188 130.35 430.227C143.183 429.92 156.039 429.525 168.872 429.174C169.509 429.17 170.146 429.199 170.78 429.262ZM167.928 430.71L156.477 431.105L131.447 431.698C130.859 431.635 130.266 431.743 129.737 432.007C129.208 432.272 128.766 432.682 128.464 433.19C122.387 443.199 116.223 453.185 110.102 463.171C109.864 463.659 109.665 464.166 109.51 464.686H111.528C123.023 464.379 134.518 464.027 146.013 463.786C146.601 463.796 147.179 463.638 147.68 463.331C148.181 463.024 148.585 462.58 148.843 462.052C154.81 452.249 160.821 442.452 166.875 432.664C167.161 432.159 167.424 431.632 167.928 430.71Z" fill="white" fill-opacity="0.1"/>
<path fill-rule="evenodd" clip-rule="evenodd" d="M212.615 527.479L217.661 519.249C223.013 510.47 228.388 501.844 233.697 493.131C233.951 492.596 234.352 492.145 234.853 491.83C235.355 491.515 235.935 491.35 236.527 491.353C249.689 491.046 262.676 490.672 275.728 490.343C276.108 490.316 276.489 490.316 276.869 490.343C276.584 490.958 276.387 491.484 276.101 491.967C269.389 502.941 262.632 513.915 255.941 524.89C255.673 525.411 255.258 525.843 254.747 526.132C254.236 526.42 253.653 526.553 253.067 526.514C240.234 526.843 227.379 527.238 214.546 527.589C214.041 527.611 213.537 527.523 212.615 527.479ZM215.467 525.833C216.169 525.833 216.454 525.965 216.739 525.965C228.673 525.628 240.614 525.314 252.563 525.021C253.081 525.008 253.584 524.849 254.015 524.561C254.446 524.274 254.787 523.87 254.998 523.397C261.038 513.535 267.092 503.673 273.162 493.811C273.447 493.328 273.644 492.801 274.039 491.945L235.627 492.999L215.467 525.833Z" fill="url(#paint13_linear_487_863)"/>
<path d="M383.308 429.305L381.268 432.642C374.935 442.957 368.603 453.273 362.27 463.588C362.026 464.126 361.631 464.581 361.132 464.897C360.633 465.213 360.052 465.376 359.462 465.366C346.3 465.674 333.335 466.047 320.26 466.398H319.142C319.306 465.916 319.504 465.447 319.734 464.993L340.135 431.742C340.329 431.319 340.637 430.959 341.025 430.703C341.413 430.446 341.865 430.305 342.329 430.293C355.491 429.964 368.785 429.569 381.992 429.196C382.343 429.13 382.628 429.218 383.308 429.305ZM380.522 430.864C379.732 430.864 379.381 430.864 379.03 430.864C367.162 431.171 355.294 431.522 343.426 431.808C342.911 431.806 342.406 431.955 341.974 432.235C341.541 432.516 341.2 432.916 340.991 433.388C334.907 443.323 328.809 453.251 322.695 463.171C322.414 463.72 322.165 464.284 321.95 464.861L360.34 463.808C367.008 452.834 373.655 442.035 380.566 430.864H380.522Z" fill="white" fill-opacity="0.1"/>
<path d="M425.186 37.1362L430.692 28.1595C435.869 19.7094 441.09 11.2813 446.245 2.78741C446.496 2.25177 446.897 1.80063 447.399 1.48889C447.902 1.17715 448.484 1.01826 449.075 1.03156C462.237 0.724289 475.202 0.35117 488.277 0H489.418C489.132 0.614548 488.935 1.1413 488.65 1.62416C481.937 12.569 475.217 23.543 468.489 34.5464C468.256 35.0458 467.884 35.4671 467.417 35.7592C466.95 36.0513 466.408 36.2018 465.857 36.1925C452.695 36.4997 439.73 36.8948 426.655 37.2679C426.163 37.2503 425.673 37.2063 425.186 37.1362ZM486.61 1.84364C485.864 1.84364 485.381 1.69001 484.877 1.69001C473.177 2.01191 461.477 2.3265 449.777 2.63378C449.299 2.60938 448.825 2.72515 448.411 2.96689C447.998 3.20863 447.665 3.56581 447.452 3.99456C441.287 14.0688 435.101 24.099 428.937 34.1732C428.707 34.6397 428.517 35.1242 428.366 35.6218C429.025 35.6218 429.485 35.6218 429.924 35.6218C441.573 35.3145 453.221 34.9634 464.87 34.7C465.456 34.7145 466.033 34.561 466.535 34.2576C467.036 33.9543 467.44 33.5138 467.7 32.988C473.681 23.1553 479.692 13.3518 485.732 3.57755C485.864 3.09469 486.193 2.50209 486.566 1.84364H486.61Z" fill="white" fill-opacity="0.1"/>
<path fill-rule="evenodd" clip-rule="evenodd" d="M489.593 98.6349C484.372 98.6349 479.568 98.4374 474.764 98.3057C466.208 98.0643 457.653 97.7789 449.075 97.5814C448.528 97.6155 447.982 97.4907 447.503 97.2221C447.024 96.9535 446.634 96.5524 446.377 96.067C439.65 85.049 432.886 74.0311 426.085 63.0131C425.844 62.5961 425.668 62.1352 425.317 61.4109C426.326 61.4109 427.05 61.4109 427.774 61.4109C440.322 61.7401 452.87 62.1132 465.418 62.3986C466.042 62.3551 466.664 62.4912 467.212 62.7907C467.76 63.0903 468.211 63.5406 468.512 64.0886C475.224 75.1504 481.981 86.1757 488.782 97.1644C489.001 97.5156 489.198 97.9106 489.593 98.6349ZM486.632 97.0108C486.499 96.626 486.338 96.2518 486.149 95.8914C479.904 85.6489 473.66 75.465 467.415 65.3396C467.188 64.9155 466.844 64.5658 466.424 64.3322C466.004 64.0987 465.525 63.9912 465.046 64.0227C453.243 63.7374 441.441 63.3862 429.639 63.0789C429.139 63.1006 428.641 63.1519 428.147 63.2326C428.52 63.891 428.762 64.3519 429.025 64.7689C435.079 74.6456 441.156 84.5223 447.167 94.377C447.458 94.9345 447.906 95.3941 448.456 95.6986C449.006 96.003 449.633 96.1387 450.26 96.0889C461.689 96.3523 473.097 96.7035 484.526 97.0108H486.632Z" fill="url(#paint14_linear_487_863)"/>
<path fill-rule="evenodd" clip-rule="evenodd" d="M277.023 343.861L234.728 342.698C227.401 330.736 220.096 318.862 212.571 306.593H215.423L252.826 307.581C253.413 307.51 254.008 307.609 254.541 307.865C255.073 308.122 255.521 308.526 255.831 309.03C262.654 320.289 269.564 331.461 276.452 342.676C276.606 342.918 276.694 343.181 277.023 343.861ZM215.599 308.525C215.862 309.03 216.059 309.425 216.279 309.776C222.377 319.718 228.498 329.639 234.552 339.581C234.82 340.111 235.237 340.551 235.751 340.848C236.266 341.144 236.855 341.284 237.448 341.25L272.153 342.171C272.769 342.165 273.384 342.121 273.995 342.04C273.71 341.491 273.557 341.14 273.381 340.833C267.195 330.78 261.023 320.721 254.866 310.654C254.6 310.169 254.2 309.773 253.713 309.512C253.226 309.25 252.674 309.136 252.124 309.183C244.621 309.008 237.097 308.7 229.595 308.547C225.097 308.437 220.425 308.525 215.686 308.525H215.599Z" fill="url(#paint15_linear_487_863)"/>
<path d="M318.9 343.708L328.64 327.817C332.458 321.606 336.297 315.395 340.092 309.161C340.311 308.693 340.658 308.296 341.092 308.017C341.527 307.737 342.032 307.586 342.549 307.581C355.711 307.274 368.932 306.937 382.211 306.571C382.506 306.599 382.799 306.643 383.088 306.703C382.877 307.243 382.635 307.771 382.365 308.283C375.637 319.243 368.91 330.217 362.182 341.206C361.944 341.702 361.565 342.118 361.094 342.403C360.622 342.687 360.078 342.828 359.528 342.808C346.541 343.13 333.547 343.488 320.546 343.883C320.129 343.817 319.69 343.752 318.9 343.708ZM321.84 342.171C322.783 342.171 323.419 342.171 324.034 342.171C335.463 341.864 346.892 341.513 358.3 341.271C358.925 341.298 359.544 341.145 360.085 340.83C360.625 340.515 361.064 340.051 361.349 339.494C367.294 329.727 373.305 320.004 379.271 310.259C379.622 309.71 379.886 309.117 380.281 308.349C379.469 308.349 378.898 308.349 378.328 308.349C366.745 308.657 355.184 309.008 343.602 309.271C343.052 309.243 342.507 309.375 342.032 309.652C341.556 309.928 341.172 310.338 340.925 310.829C334.9 320.721 328.845 330.59 322.761 340.437C322.498 340.854 322.257 341.381 321.84 342.171Z" fill="white" fill-opacity="0.1"/>
<path d="M489.505 343.686C488.847 343.686 488.43 343.817 488.013 343.817C475.005 343.466 462.018 343.071 449.031 342.742C448.518 342.784 448.004 342.678 447.549 342.437C447.094 342.196 446.718 341.829 446.464 341.381C439.62 330.144 432.71 318.95 425.844 307.757C425.69 307.493 425.602 307.23 425.383 306.747C425.997 306.747 426.458 306.571 426.94 306.571L465.703 307.581C466.219 307.54 466.736 307.647 467.194 307.887C467.652 308.128 468.033 308.494 468.292 308.942C475.18 320.223 482.098 331.497 489.044 342.764C489.216 343.062 489.37 343.37 489.505 343.686ZM428.081 308.261C428.388 308.898 428.476 309.183 428.63 309.425C434.86 319.536 441.068 329.661 447.254 339.801C447.532 340.283 447.942 340.676 448.436 340.932C448.929 341.189 449.486 341.299 450.04 341.25C461.623 341.535 473.184 341.864 484.767 342.171C485.369 342.155 485.969 342.104 486.566 342.018C486.28 341.469 486.127 341.118 485.929 340.811C479.765 330.758 473.557 320.706 467.436 310.61C467.159 310.134 466.752 309.747 466.262 309.494C465.772 309.241 465.221 309.133 464.672 309.183L430.187 308.261H428.081Z" fill="white" fill-opacity="0.1"/>
<path d="M106.352 588.846L107.317 587.156C113.898 576.314 120.633 565.515 127.258 554.673C127.542 554.074 127.994 553.571 128.559 553.224C129.123 552.878 129.776 552.702 130.439 552.72C143.052 552.456 155.666 552.083 168.302 551.754H170.496C170.145 552.5 169.947 553.049 169.662 553.532C163.081 564.506 156.281 575.282 149.634 586.213C149.347 586.765 148.906 587.223 148.365 587.531C147.824 587.838 147.206 587.983 146.584 587.946C133.758 588.254 120.918 588.605 108.063 589C107.668 588.978 107.185 588.912 106.352 588.846ZM167.776 553.532C167.142 553.462 166.505 553.425 165.867 553.422C154.218 553.729 142.57 554.081 130.921 554.344C130.369 554.328 129.824 554.474 129.353 554.762C128.882 555.05 128.504 555.469 128.267 555.968C122.241 565.845 116.187 575.707 110.103 585.554C109.796 586.059 109.598 586.586 109.247 587.266C109.905 587.266 110.344 587.266 110.761 587.266C122.461 586.93 134.161 586.615 145.86 586.322C146.453 586.328 147.033 586.16 147.532 585.841C148.031 585.521 148.426 585.063 148.668 584.523C154.343 575.217 160.046 565.925 165.779 556.648L167.776 553.532Z" fill="white" fill-opacity="0.1"/>
<path d="M276.957 588.868C276.299 588.868 275.882 589 275.443 588.868C262.456 588.517 249.469 588.122 236.461 587.793C235.95 587.839 235.437 587.734 234.985 587.492C234.533 587.251 234.162 586.882 233.916 586.432C227.086 575.253 220.242 564.111 213.383 553.005C213.207 552.676 213.076 552.347 212.812 551.798C213.449 551.798 213.931 551.622 214.392 551.622L253.155 552.654C253.669 552.609 254.185 552.71 254.644 552.947C255.102 553.184 255.483 553.547 255.744 553.993C262.632 565.296 269.586 576.555 276.496 587.815C276.65 588.166 276.737 588.517 276.957 588.868ZM215.533 553.554C215.84 554.146 216.037 554.541 216.257 554.893C222.377 564.879 228.541 574.865 234.64 584.896C234.904 585.385 235.303 585.787 235.789 586.056C236.275 586.324 236.828 586.447 237.382 586.41C249.097 586.695 260.811 587.047 272.482 587.354C272.876 587.354 273.293 587.354 273.776 587.354C273.747 587.076 273.681 586.802 273.578 586.542C267.392 576.153 261.118 565.837 254.756 555.595C254.534 555.22 254.21 554.916 253.822 554.717C253.433 554.519 252.997 554.435 252.563 554.476L217.463 553.532C216.849 553.5 216.234 553.507 215.62 553.554H215.533Z" fill="white" fill-opacity="0.1"/>
<path d="M277.001 245.248C276.474 246.192 276.123 246.829 275.728 247.443C269.147 258.066 262.566 268.689 256.182 279.356C255.844 280.005 255.323 280.541 254.684 280.896C254.044 281.251 253.314 281.41 252.584 281.353C239.971 281.638 227.357 282.033 214.743 282.385C214.173 282.385 213.602 282.385 212.769 282.385C213.185 281.595 213.449 281.024 213.8 280.475C220.454 269.647 227.094 258.82 233.719 247.992C233.977 247.464 234.38 247.02 234.881 246.713C235.383 246.406 235.961 246.248 236.548 246.258C249.557 245.951 262.544 245.578 275.531 245.226C275.904 245.161 276.277 245.205 277.001 245.248ZM273.973 247.026C273.403 247.026 273.074 246.851 272.723 246.851C260.789 247.187 248.848 247.502 236.899 247.794C236.456 247.8 236.023 247.933 235.654 248.178C235.284 248.423 234.993 248.77 234.815 249.177L216.3 279.334C216.071 279.8 215.88 280.285 215.73 280.782C216.41 280.782 216.849 280.782 217.31 280.782C228.958 280.475 240.585 280.124 252.233 279.861C252.823 279.881 253.406 279.728 253.909 279.42C254.413 279.111 254.814 278.662 255.063 278.127C261.06 268.309 267.078 258.512 273.118 248.738C273.403 248.321 273.622 247.707 273.973 247.026Z" fill="white" fill-opacity="0.1"/>
<path d="M425.317 551.754H427.774L465.418 552.742C466.006 552.679 466.6 552.787 467.129 553.051C467.657 553.316 468.099 553.726 468.402 554.234C475.224 565.472 482.135 576.665 489.023 587.859C489.155 588.1 489.264 588.385 489.462 588.846C488.825 588.846 488.343 588.978 487.838 588.978C475.005 588.627 462.172 588.232 449.317 587.903C448.725 587.962 448.129 587.844 447.605 587.562C447.082 587.281 446.654 586.849 446.377 586.322C439.65 575.275 432.893 564.257 426.107 553.268C425.844 552.939 425.668 552.478 425.317 551.754ZM428.169 553.422C428.324 553.819 428.5 554.207 428.696 554.585C434.904 564.703 441.156 574.822 447.32 584.962C447.593 585.444 447.998 585.837 448.489 586.094C448.979 586.351 449.533 586.461 450.084 586.41C461.667 586.695 473.228 587.025 484.811 587.332C485.42 587.326 486.028 587.282 486.632 587.2C486.347 586.63 486.193 586.3 486.018 585.993C479.831 575.941 473.66 565.874 467.503 555.792C467.233 555.314 466.83 554.925 466.343 554.672C465.856 554.418 465.307 554.312 464.76 554.366C453.331 554.081 441.902 553.751 430.495 553.444L428.169 553.422Z" fill="white" fill-opacity="0.1"/>
<path fill-rule="evenodd" clip-rule="evenodd" d="M212.812 61.4767C214.743 61.4767 216.41 61.4767 218.055 61.4767C229.529 61.784 241.024 62.1351 252.519 62.3766C253.286 62.3396 254.048 62.5276 254.711 62.9174C255.373 63.3073 255.907 63.8821 256.248 64.5714C262.829 75.3699 269.41 86.1025 275.991 96.8571L276.869 98.4154C276.365 98.5347 275.851 98.6081 275.333 98.6349L236.351 97.5594C235.875 97.6128 235.394 97.5273 234.966 97.3131C234.538 97.0988 234.181 96.7651 233.938 96.3523C227.05 85.0709 220.132 73.7969 213.185 62.5302C213.044 62.1855 212.919 61.8338 212.812 61.4767ZM215.599 63.1008C215.768 63.5055 215.958 63.9011 216.169 64.2861C222.384 74.3968 228.593 84.5222 234.794 94.6623C235.043 95.1167 235.417 95.4904 235.872 95.7392C236.327 95.9881 236.843 96.1018 237.36 96.0669L272.46 97.0107C272.969 96.9907 273.476 96.9246 273.973 96.8132C273.83 96.4758 273.669 96.1461 273.491 95.8255C267.282 85.6855 261.03 75.5893 254.866 65.4273C254.592 64.9495 254.184 64.5621 253.693 64.3126C253.202 64.0631 252.649 63.9623 252.102 64.0227C240.673 63.7373 229.243 63.4081 217.836 63.1008H215.599Z" fill="url(#paint16_linear_487_863)"/>
<path d="M489.615 367.873L477.286 387.977C474.413 392.652 471.495 397.305 468.687 402.024C468.379 402.648 467.895 403.168 467.294 403.519C466.694 403.87 466.003 404.037 465.309 403.999C458.092 403.999 450.874 404.35 443.657 404.548L427.884 404.987H425.317C425.712 404.219 425.954 403.626 426.283 403.099C432.864 392.125 439.664 381.327 446.311 370.419C446.554 369.92 446.936 369.504 447.411 369.219C447.886 368.935 448.434 368.795 448.988 368.816C461.974 368.509 474.961 368.114 487.97 367.763C488.52 367.767 489.069 367.803 489.615 367.873ZM486.719 369.365H485.184C473.484 369.687 461.784 370.002 450.084 370.309C449.493 370.294 448.909 370.447 448.4 370.75C447.892 371.053 447.48 371.493 447.211 372.021C441.2 381.919 435.123 391.774 429.069 401.629C428.805 402.046 428.564 402.507 428.191 403.209C429.113 403.209 429.749 403.319 430.385 403.209C441.792 402.902 453.221 402.551 464.651 402.309C465.306 402.335 465.955 402.167 466.516 401.828C467.077 401.489 467.527 400.992 467.81 400.4C473.66 390.757 479.561 381.144 485.513 371.56C485.864 371.033 486.171 370.375 486.719 369.365Z" fill="white" fill-opacity="0.1"/>
<path fill-rule="evenodd" clip-rule="evenodd" d="M85.4671 454.217C85.0848 453.643 84.7333 453.05 84.4141 452.439C78.2936 441.135 72.1951 429.832 66.0308 418.551C65.7358 418.089 65.5791 417.552 65.5791 417.003C65.5791 416.455 65.7358 415.918 66.0308 415.456C72.217 404.109 78.3375 392.718 84.5018 381.349C84.7431 380.91 85.0503 380.493 85.4671 379.878C85.9497 380.668 86.3226 381.305 86.6736 382.073C92.6405 393.047 98.5855 404.153 104.618 415.149C104.999 415.729 105.203 416.408 105.203 417.102C105.203 417.796 104.999 418.476 104.618 419.056C98.5855 430.03 92.6405 441.114 86.6517 452.153C86.3007 452.79 85.9277 453.426 85.4671 454.217ZM85.4671 450.902C85.8181 450.398 85.9936 450.178 86.1471 449.915C91.8215 439.409 97.5179 428.896 103.236 418.375C103.494 417.928 103.614 417.415 103.583 416.9C103.552 416.385 103.37 415.891 103.061 415.478C97.5325 405.316 92.0921 395.11 86.52 384.926C86.2349 384.4 85.9058 383.917 85.4671 383.236C85.0064 384.048 84.6115 384.663 84.2605 385.321C78.8859 395.242 73.5552 405.184 68.1148 415.061C67.7119 415.674 67.4972 416.391 67.4972 417.124C67.4972 417.858 67.7119 418.575 68.1148 419.187C73.5552 429.064 78.8859 438.941 84.2605 448.927C84.5676 449.52 84.9186 450.09 85.4013 450.902H85.4671Z" fill="url(#paint17_linear_487_863)"/>
<path d="M297.972 454.282C297.49 453.426 297.095 452.79 296.744 452.088C290.777 441.114 284.832 430.008 278.799 419.012C278.418 418.432 278.215 417.753 278.215 417.058C278.215 416.364 278.418 415.685 278.799 415.105C284.832 404.131 290.777 393.157 296.766 382.007C297.117 381.349 297.49 380.734 297.994 379.812C298.521 380.69 298.894 381.327 299.245 382.007C305.211 392.981 311.156 404.109 317.189 415.105C317.57 415.685 317.774 416.364 317.774 417.058C317.774 417.753 317.57 418.432 317.189 419.012C311.156 429.986 305.211 441.07 299.245 452.11C298.872 452.768 298.477 453.404 297.972 454.282ZM297.972 383.214C297.621 383.785 297.402 384.092 297.226 384.4C291.567 394.847 285.929 405.316 280.225 415.741C279.968 416.191 279.846 416.706 279.873 417.224C279.9 417.741 280.076 418.24 280.379 418.661C285.951 428.903 291.501 439.146 297.029 449.388C297.27 449.827 297.577 450.244 297.972 450.859C298.389 450.156 298.762 449.607 299.069 449.037C304.531 438.985 309.928 428.91 315.434 418.88C315.793 418.328 315.984 417.684 315.984 417.025C315.984 416.367 315.793 415.723 315.434 415.171C309.994 405.206 304.619 395.22 299.201 385.234C298.85 384.663 298.499 384.092 297.994 383.214H297.972Z" fill="white" fill-opacity="0.1"/>
<path d="M383.154 551.82C382.803 552.522 382.584 553.071 382.299 553.554C375.615 564.44 368.939 575.326 362.27 586.213C362.009 586.742 361.601 587.185 361.096 587.488C360.59 587.792 360.008 587.943 359.418 587.925C346.431 588.232 333.445 588.627 320.436 588.978C320.085 588.978 319.712 588.978 319.098 588.978C319.284 588.481 319.503 587.997 319.756 587.529C326.512 576.511 333.269 565.494 340.026 554.476C340.259 553.973 340.63 553.547 341.096 553.248C341.563 552.949 342.104 552.788 342.658 552.786C355.645 552.478 368.639 552.142 381.64 551.776C382.057 551.732 382.496 551.776 383.154 551.82ZM321.73 587.332C322.651 587.332 323.31 587.332 323.924 587.332C335.353 587.025 346.782 586.695 358.19 586.432C358.815 586.461 359.436 586.309 359.977 585.994C360.518 585.679 360.956 585.213 361.239 584.654C367.184 574.887 373.195 565.164 379.162 555.441C379.513 554.871 379.776 554.278 380.171 553.51C379.359 553.51 378.789 553.4 378.218 553.51C366.635 553.817 355.075 554.168 343.492 554.432C342.941 554.408 342.395 554.545 341.92 554.825C341.445 555.106 341.061 555.518 340.815 556.012C334.79 565.889 328.735 575.758 322.651 585.62C322.498 586.015 322.257 586.542 321.84 587.332H321.73Z" fill="white" fill-opacity="0.1"/>
<path fill-rule="evenodd" clip-rule="evenodd" d="M425.34 159.738C425.757 158.948 426.02 158.356 426.349 157.807L446.378 125.412C446.601 124.911 446.964 124.485 447.423 124.185C447.882 123.886 448.418 123.725 448.966 123.722C462.128 123.436 475.291 123.041 488.453 122.668C488.738 122.668 489.045 122.668 489.55 122.668C489.287 123.217 489.133 123.678 488.892 124.073C482.135 135.12 475.378 146.138 468.622 157.127C468.389 157.634 468.015 158.064 467.544 158.364C467.073 158.664 466.526 158.821 465.967 158.817C452.981 159.124 439.994 159.497 426.985 159.826C426.436 159.827 425.886 159.798 425.34 159.738ZM428.148 158.027C428.806 158.027 429.091 158.158 429.398 158.158L465.222 157.193C465.689 157.179 466.142 157.034 466.53 156.774C466.919 156.514 467.225 156.149 467.415 155.722L485.864 125.741C486.108 125.257 486.321 124.759 486.501 124.248C485.404 124.248 484.504 124.248 483.605 124.248C472.636 124.534 461.536 124.885 450.48 125.104C449.734 125.078 448.997 125.272 448.361 125.662C447.725 126.053 447.218 126.622 446.904 127.299C441.069 136.956 435.124 146.548 429.223 156.139C428.828 156.6 428.608 157.171 428.148 158.027Z" fill="url(#paint18_linear_487_863)"/>
<path fill-rule="evenodd" clip-rule="evenodd" d="M0 551.754H2.63246L40.2766 552.742C40.866 552.67 41.4636 552.771 41.997 553.032C42.5304 553.293 42.9767 553.703 43.282 554.212C50.1044 565.45 57.0146 576.643 63.9029 587.837C64.0345 588.078 64.1442 588.364 64.4294 588.956C50.2141 588.693 36.2182 588.254 22.1565 587.815C14.8295 575.875 7.63413 564.001 0 551.754ZM61.424 587.332C61.1827 586.761 61.1169 586.476 60.9633 586.213C54.7771 576.043 48.5542 565.837 42.2948 555.595C42.0672 555.173 41.7223 554.826 41.3019 554.596C40.8814 554.367 40.4034 554.264 39.9256 554.3L4.82617 553.356C4.25337 553.375 3.68209 553.426 3.11507 553.51L3.99256 555.046C10.0472 564.923 16.1238 574.8 22.1346 584.654C22.4319 585.206 22.8815 585.661 23.4299 585.965C23.9783 586.268 24.6024 586.408 25.2277 586.366C36.4376 586.63 47.6255 586.959 58.8135 587.266C59.5813 587.354 60.393 587.332 61.5118 587.332H61.424Z" fill="url(#paint19_linear_487_863)"/>
<path d="M510.499 454.195C510.017 453.383 509.666 452.812 509.359 452.219C503.348 441.113 497.359 430.008 491.304 418.924C490.94 418.374 490.746 417.729 490.746 417.069C490.746 416.41 490.94 415.765 491.304 415.215C497.381 404.087 503.414 392.893 509.446 381.722C509.732 381.195 510.061 380.712 510.477 380.01C510.894 380.624 511.267 381.063 511.53 381.546C517.658 392.857 523.771 404.16 529.87 415.456C530.184 415.866 530.372 416.358 530.411 416.872C530.45 417.387 530.338 417.901 530.089 418.353C523.742 429.957 517.439 441.589 511.179 453.251C511.026 453.492 510.828 453.734 510.499 454.195ZM510.499 383.324C510.271 383.597 510.059 383.883 509.863 384.18C504.138 394.759 498.434 405.338 492.665 415.917C492.438 416.341 492.339 416.82 492.378 417.299C492.416 417.778 492.592 418.235 492.884 418.617L509.666 449.564C509.932 449.991 510.225 450.402 510.543 450.793C510.766 450.498 510.971 450.19 511.158 449.871C516.817 439.424 522.455 428.976 528.159 418.529C528.439 418.098 528.588 417.595 528.588 417.08C528.588 416.566 528.439 416.063 528.159 415.632C522.565 405.382 517.037 395.132 511.487 384.904C511.267 384.4 510.916 383.917 510.543 383.324H510.499Z" fill="white" fill-opacity="0.1"/>
<path d="M212.681 404.921C213.295 403.868 213.69 403.143 214.107 402.463C220.688 391.884 227.115 381.349 233.565 370.748C233.874 370.126 234.359 369.609 234.96 369.262C235.561 368.915 236.251 368.752 236.943 368.794C249.623 368.509 262.324 368.136 275.026 367.785C275.596 367.785 276.167 367.785 277.022 367.785C276.649 368.443 276.408 368.882 276.145 369.299C269.417 380.259 262.697 391.233 255.985 402.221C255.724 402.754 255.317 403.201 254.812 403.512C254.308 403.823 253.725 403.984 253.133 403.977C240.3 404.263 227.444 404.636 214.611 404.965C214.085 405.009 213.58 404.965 212.681 404.921ZM215.467 403.319H217.66C229.155 402.99 240.651 402.638 252.146 402.397C252.77 402.423 253.389 402.267 253.926 401.947C254.464 401.628 254.897 401.159 255.173 400.597C261.023 390.896 266.953 381.217 272.964 371.56C273.337 370.945 273.644 370.287 274.105 369.365C273.403 369.365 272.964 369.365 272.525 369.365C260.811 369.672 249.096 370.024 237.426 370.287C236.834 370.282 236.253 370.449 235.754 370.769C235.255 371.088 234.861 371.546 234.618 372.087C228.943 381.393 223.24 390.684 217.507 399.961L215.467 403.319Z" fill="white" fill-opacity="0.1"/>
<path fill-rule="evenodd" clip-rule="evenodd" d="M318.966 98.5691C319.317 97.9106 319.514 97.5375 319.734 97.1644C326.49 86.1903 333.291 75.2163 340.004 64.1105C340.269 63.5847 340.677 63.1449 341.182 62.8419C341.687 62.5389 342.267 62.3852 342.855 62.3986C355.711 62.1132 368.566 61.7401 381.399 61.4109C381.904 61.4109 382.408 61.4109 383.154 61.4109C382.803 62.1132 382.605 62.6619 382.298 63.1448C375.629 74.0311 368.946 84.9173 362.248 95.8036C362.037 96.3154 361.678 96.7521 361.216 97.0573C360.755 97.3625 360.212 97.5221 359.659 97.5156C346.497 97.8228 333.335 98.2179 320.172 98.591L318.966 98.5691ZM321.796 97.0327H323.353C335.068 96.7254 346.782 96.3743 358.453 96.1109C359.042 96.1289 359.624 95.9744 360.126 95.6664C360.629 95.3584 361.031 94.9103 361.283 94.377C367.264 84.5735 373.282 74.77 379.337 64.9665L380.28 63.2326C379.468 63.2326 378.898 63.1009 378.328 63.2326C366.745 63.5399 355.184 63.891 343.601 64.1325C343.016 64.1215 342.44 64.2791 341.943 64.5866C341.445 64.894 341.046 65.3383 340.793 65.8664C334.826 75.626 328.852 85.3709 322.871 95.1013C322.585 95.5183 322.3 96.1109 321.796 97.0327Z" fill="url(#paint20_linear_487_863)"/>
<path d="M319.142 122.712C319.57 122.645 320.002 122.601 320.436 122.58C333.598 122.961 346.76 123.319 359.923 123.656C360.365 123.627 360.807 123.725 361.196 123.939C361.585 124.153 361.904 124.473 362.116 124.863L382.759 158.685C382.932 159.01 383.078 159.347 383.198 159.695C382.408 159.695 381.772 159.826 381.158 159.826L343.053 158.817C342.505 158.875 341.952 158.776 341.459 158.531C340.965 158.286 340.552 157.906 340.267 157.434C333.335 146.065 326.381 134.718 319.405 123.392C319.294 123.175 319.206 122.947 319.142 122.712ZM380.412 158.005C380.017 157.28 379.754 156.666 379.403 156.117C373.458 146.438 367.491 136.803 361.612 127.102C361.296 126.474 360.804 125.953 360.196 125.602C359.588 125.251 358.891 125.086 358.19 125.126C346.936 124.863 335.66 124.534 324.385 124.226H322.037C322.15 124.584 322.282 124.936 322.432 125.28C328.735 135.522 335.024 145.765 341.298 156.007C341.504 156.4 341.823 156.722 342.215 156.929C342.606 157.137 343.052 157.221 343.492 157.171L378.898 158.136C379.227 158.158 379.644 158.07 380.302 158.005H380.412Z" fill="white" fill-opacity="0.1"/>
<path d="M106.352 367.763C111.77 367.873 116.816 367.96 121.839 368.114C130.088 368.334 138.358 368.619 146.628 368.816C147.25 368.763 147.873 368.895 148.42 369.196C148.966 369.497 149.411 369.953 149.699 370.506C156.281 381.349 162.862 392.169 169.596 402.99C169.925 403.538 170.189 404.131 170.649 404.987H168.17L130.482 403.977C129.896 404.05 129.301 403.95 128.771 403.689C128.241 403.427 127.799 403.016 127.499 402.507C120.677 391.247 113.766 380.076 106.878 368.86C106.79 368.619 106.681 368.355 106.352 367.763ZM109.269 369.409C109.62 370.111 109.796 370.528 110.015 370.901C116.157 380.888 122.322 390.852 128.398 400.883C128.663 401.369 129.063 401.769 129.549 402.034C130.036 402.299 130.588 402.417 131.141 402.375C142.709 402.653 154.277 402.968 165.845 403.319C166.394 403.319 166.964 403.319 167.798 403.165C167.381 402.441 167.117 401.914 166.81 401.409C160.821 391.686 154.811 381.963 148.888 372.196C148.561 371.578 148.062 371.068 147.45 370.728C146.838 370.389 146.141 370.236 145.444 370.287C134.321 370.046 123.199 369.716 112.077 369.409H109.269Z" fill="white" fill-opacity="0.1"/>
<path d="M510.5 209.034C510.017 208.222 509.666 207.651 509.359 207.059C503.414 195.953 497.359 184.847 491.305 173.698C490.946 173.146 490.755 172.501 490.755 171.843C490.755 171.184 490.946 170.54 491.305 169.988C497.403 158.861 503.414 147.667 509.469 136.495C509.754 135.991 510.083 135.486 510.5 134.762C510.916 135.398 511.289 135.837 511.553 136.32C517.651 147.63 523.764 158.934 529.892 170.23C530.206 170.639 530.394 171.131 530.433 171.646C530.472 172.16 530.36 172.675 530.111 173.127C523.764 184.715 517.461 196.341 511.202 208.002C511.026 208.332 510.829 208.551 510.5 209.034ZM510.5 138.076C510.227 138.44 509.978 138.821 509.754 139.217C504.072 149.664 498.434 160.112 492.752 170.559C492.485 171 492.353 171.509 492.373 172.024C492.392 172.539 492.563 173.037 492.862 173.456C498.478 183.699 504.072 194.014 509.644 204.403C509.916 204.84 510.216 205.258 510.543 205.654C510.938 204.996 511.224 204.557 511.465 204.118C516.949 193.978 522.433 183.86 527.918 173.763C528.282 173.213 528.476 172.568 528.476 171.909C528.476 171.249 528.282 170.604 527.918 170.054C522.433 160.024 516.949 149.95 511.575 139.897C511.355 139.371 511.048 138.866 510.565 138.076H510.5Z" fill="white" fill-opacity="0.1"/>
<path fill-rule="evenodd" clip-rule="evenodd" d="M383.198 404.921C381.004 404.921 379.008 404.921 377.077 404.921C365.889 404.636 354.701 404.285 343.492 404.043C342.72 404.084 341.954 403.899 341.287 403.508C340.62 403.118 340.082 402.541 339.74 401.848C333.291 391.182 326.71 380.559 320.194 369.936C319.799 369.321 319.448 368.685 318.966 367.873C319.393 367.797 319.826 367.753 320.26 367.741L359.747 368.794C360.223 368.778 360.695 368.897 361.106 369.138C361.518 369.379 361.853 369.732 362.072 370.155C368.931 381.363 375.812 392.572 382.715 403.78C382.759 404.153 382.913 404.328 383.198 404.921ZM321.774 369.431C322.103 370.111 322.278 370.506 322.498 370.88C328.64 380.866 334.804 390.852 340.881 400.883C341.142 401.368 341.538 401.766 342.021 402.031C342.503 402.296 343.052 402.416 343.601 402.375C355.184 402.653 366.76 402.968 378.328 403.319C378.876 403.319 379.447 403.319 380.28 403.165L379.183 401.234C373.282 391.62 367.315 382.051 361.502 372.394C361.157 371.694 360.612 371.112 359.937 370.721C359.261 370.331 358.485 370.149 357.707 370.199C346.98 369.958 336.23 369.628 325.481 369.343C324.45 369.387 323.331 369.431 321.862 369.431H321.774Z" fill="url(#paint21_linear_487_863)"/>
<path d="M384.119 233.199L404.082 196.26C404.465 196.651 404.81 197.078 405.113 197.533L423.672 231.838C423.95 232.19 424.113 232.618 424.141 233.065C424.168 233.512 424.058 233.957 423.825 234.34C417.449 246.046 411.102 257.752 404.784 269.457C404.588 269.726 404.368 269.976 404.126 270.203L384.119 233.199ZM404.257 267.153C410.531 255.52 416.586 244.349 422.575 233.287C418.67 225.144 405.442 201.133 404.016 199.684L385.896 233.199L404.257 267.153Z" fill="white" fill-opacity="0.1"/>
<path fill-rule="evenodd" clip-rule="evenodd" d="M404.345 441.267L424.396 478.36L404.389 515.386C403.984 514.875 403.61 514.34 403.271 513.784C397.157 502.488 391.037 491.192 384.909 479.896C384.629 479.465 384.479 478.962 384.479 478.447C384.479 477.933 384.629 477.43 384.909 476.999C391.139 465.571 397.333 454.129 403.49 442.672C403.622 442.299 403.885 441.97 404.345 441.267ZM404.345 512.313L422.641 478.491C419.614 471.775 405.355 445.986 404.06 444.933L385.984 478.381L404.345 512.313Z" fill="url(#paint22_linear_487_863)"/>
<path fill-rule="evenodd" clip-rule="evenodd" d="M191.906 441.465C198.663 453.931 205.266 466.156 211.913 478.447L191.906 515.32C191.547 514.915 191.21 514.49 190.897 514.047C184.711 502.62 178.517 491.177 172.317 479.72C172.047 479.369 171.89 478.943 171.866 478.501C171.843 478.058 171.954 477.618 172.185 477.24C178.576 465.534 184.923 453.829 191.226 442.123C191.427 441.878 191.655 441.657 191.906 441.465ZM173.479 478.316C175.826 483.671 190.722 510.733 192.016 511.94L210.136 478.447C204.038 467.188 198.005 456.06 191.775 444.515L173.479 478.316Z" fill="url(#paint23_linear_487_863)"/>
</g>
<defs>
<linearGradient id="paint0_linear_487_863" x1="609.283" y1="600.83" x2="51.9032" y2="290.545" gradientUnits="userSpaceOnUse">
<stop stop-color="#9FDB0E"/>
<stop offset="0.99" stop-color="#9FDB0E" stop-opacity="0"/>
</linearGradient>
<linearGradient id="paint1_linear_487_863" x1="661.361" y1="507.265" x2="103.982" y2="197.002" gradientUnits="userSpaceOnUse">
<stop stop-color="#9FDB0E"/>
<stop offset="0.99" stop-color="#9FDB0E" stop-opacity="0"/>
</linearGradient>
<linearGradient id="paint2_linear_487_863" x1="765.541" y1="320.157" x2="208.161" y2="9.87265" gradientUnits="userSpaceOnUse">
<stop stop-color="#9FDB0E"/>
<stop offset="0.99" stop-color="#9FDB0E" stop-opacity="0"/>
</linearGradient>
<linearGradient id="paint3_linear_487_863" x1="769.884" y1="312.344" x2="212.505" y2="2.05893" gradientUnits="userSpaceOnUse">
<stop stop-color="#9FDB0E"/>
<stop offset="0.99" stop-color="#9FDB0E" stop-opacity="0"/>
</linearGradient>
<linearGradient id="paint4_linear_487_863" x1="716.094" y1="408.959" x2="158.715" y2="98.6967" gradientUnits="userSpaceOnUse">
<stop stop-color="#9FDB0E"/>
<stop offset="0.99" stop-color="#9FDB0E" stop-opacity="0"/>
</linearGradient>
<linearGradient id="paint5_linear_487_863" x1="769.029" y1="313.902" x2="211.649" y2="3.61727" gradientUnits="userSpaceOnUse">
<stop stop-color="#9FDB0E"/>
<stop offset="0.99" stop-color="#9FDB0E" stop-opacity="0"/>
</linearGradient>
<linearGradient id="paint6_linear_487_863" x1="588.069" y1="638.954" x2="30.6897" y2="328.669" gradientUnits="userSpaceOnUse">
<stop stop-color="#9FDB0E"/>
<stop offset="0.99" stop-color="#9FDB0E" stop-opacity="0"/>
</linearGradient>
<linearGradient id="paint7_linear_487_863" x1="638.393" y1="548.572" x2="81.0138" y2="238.287" gradientUnits="userSpaceOnUse">
<stop stop-color="#9FDB0E"/>
<stop offset="0.99" stop-color="#9FDB0E" stop-opacity="0"/>
</linearGradient>
<linearGradient id="paint8_linear_487_863" x1="536.824" y1="730.983" x2="-20.5337" y2="420.698" gradientUnits="userSpaceOnUse">
<stop stop-color="#9FDB0E"/>
<stop offset="0.99" stop-color="#9FDB0E" stop-opacity="0"/>
</linearGradient>
<linearGradient id="paint9_linear_487_863" x1="795.529" y1="266.275" x2="238.149" y2="-44.0102" gradientUnits="userSpaceOnUse">
<stop stop-color="#9FDB0E"/>
<stop offset="0.99" stop-color="#9FDB0E" stop-opacity="0"/>
</linearGradient>
<linearGradient id="paint10_linear_487_863" x1="717.345" y1="406.743" x2="159.965" y2="96.4578" gradientUnits="userSpaceOnUse">
<stop stop-color="#9FDB0E"/>
<stop offset="0.99" stop-color="#9FDB0E" stop-opacity="0"/>
</linearGradient>
<linearGradient id="paint11_linear_487_863" x1="742.529" y1="361.464" x2="185.149" y2="51.1788" gradientUnits="userSpaceOnUse">
<stop stop-color="#9FDB0E"/>
<stop offset="0.99" stop-color="#9FDB0E" stop-opacity="0"/>
</linearGradient>
<linearGradient id="paint12_linear_487_863" x1="587.17" y1="640.556" x2="29.7902" y2="330.271" gradientUnits="userSpaceOnUse">
<stop stop-color="#9FDB0E"/>
<stop offset="0.99" stop-color="#9FDB0E" stop-opacity="0"/>
</linearGradient>
<linearGradient id="paint13_linear_487_863" x1="561.986" y1="685.725" x2="4.60677" y2="375.441" gradientUnits="userSpaceOnUse">
<stop stop-color="#9FDB0E"/>
<stop offset="0.99" stop-color="#9FDB0E" stop-opacity="0"/>
</linearGradient>
<linearGradient id="paint14_linear_487_863" x1="794.607" y1="267.943" x2="237.228" y2="-42.3423" gradientUnits="userSpaceOnUse">
<stop stop-color="#9FDB0E"/>
<stop offset="0.99" stop-color="#9FDB0E" stop-opacity="0"/>
</linearGradient>
<linearGradient id="paint15_linear_487_863" x1="640.039" y1="545.587" x2="82.6592" y2="235.301" gradientUnits="userSpaceOnUse">
<stop stop-color="#9FDB0E"/>
<stop offset="0.99" stop-color="#9FDB0E" stop-opacity="0"/>
</linearGradient>
<linearGradient id="paint16_linear_487_863" x1="744.24" y1="358.391" x2="186.86" y2="48.1061" gradientUnits="userSpaceOnUse">
<stop stop-color="#9FDB0E"/>
<stop offset="0.99" stop-color="#9FDB0E" stop-opacity="0"/>
</linearGradient>
<linearGradient id="paint17_linear_487_863" x1="563.324" y1="683.377" x2="5.96643" y2="373.092" gradientUnits="userSpaceOnUse">
<stop stop-color="#9FDB0E"/>
<stop offset="0.99" stop-color="#9FDB0E" stop-opacity="0"/>
</linearGradient>
<linearGradient id="paint18_linear_487_863" x1="768.612" y1="314.626" x2="211.233" y2="4.34166" gradientUnits="userSpaceOnUse">
<stop stop-color="#9FDB0E"/>
<stop offset="0.99" stop-color="#9FDB0E" stop-opacity="0"/>
</linearGradient>
<linearGradient id="paint19_linear_487_863" x1="485.557" y1="823.099" x2="-71.8228" y2="512.814" gradientUnits="userSpaceOnUse">
<stop stop-color="#9FDB0E"/>
<stop offset="0.99" stop-color="#9FDB0E" stop-opacity="0"/>
</linearGradient>
<linearGradient id="paint20_linear_487_863" x1="769.423" y1="313.156" x2="212.044" y2="2.87107" gradientUnits="userSpaceOnUse">
<stop stop-color="#9FDB0E"/>
<stop offset="0.99" stop-color="#9FDB0E" stop-opacity="0"/>
</linearGradient>
<linearGradient id="paint21_linear_487_863" x1="639.314" y1="546.882" x2="81.9345" y2="236.619" gradientUnits="userSpaceOnUse">
<stop stop-color="#9FDB0E"/>
<stop offset="0.99" stop-color="#9FDB0E" stop-opacity="0"/>
</linearGradient>
<linearGradient id="paint22_linear_487_863" x1="612.814" y1="594.487" x2="55.4348" y2="284.202" gradientUnits="userSpaceOnUse">
<stop stop-color="#9FDB0E"/>
<stop offset="0.99" stop-color="#9FDB0E" stop-opacity="0"/>
</linearGradient>
<linearGradient id="paint23_linear_487_863" x1="562.491" y1="684.869" x2="5.11126" y2="374.606" gradientUnits="userSpaceOnUse">
<stop stop-color="#9FDB0E"/>
<stop offset="0.99" stop-color="#9FDB0E" stop-opacity="0"/>
</linearGradient>
<clipPath id="clip0_487_863">
<rect width="578" height="589" fill="white"/>
</clipPath>
</defs>
</svg>
