<svg id="e72f3c8b-d6e0-4017-910a-49bb752f5fe5" data-name="Layer 1" xmlns="http://www.w3.org/2000/svg" xmlns:xlink="http://www.w3.org/1999/xlink" viewBox="0 0 2826.62 2652.53"><defs><style>.\32 147d847-c08c-424d-9561-c78575f9dcb6{fill:none;}.efa0ec54-e57b-4381-948a-6060c5eb6150{clip-path:url(#c0960fd1-651b-49aa-96ea-810ce9e1ad00);}.\35 9298050-0f92-4474-bd55-143fe2d2687e{fill:url(#09fa3b17-c633-4952-bcd1-6a627acff312);}.\33 6f908bf-1dc8-475d-8c3d-d33204350c82{opacity:0.44;}.\34 082f56d-5f1b-458f-aeb4-5152a9bcdd67{clip-path:url(#bea0401a-e019-4970-8044-4a173c4d0632);}.\39 c816dc6-a027-4f62-8af6-346cb29d0910{fill:#ba620f;}.\30 8fd3970-2b09-4141-a33e-8d9192d88deb{clip-path:url(#d42a511d-2bde-49d2-ba02-24dc0610e906);}.\30 9ce9d1f-1751-4146-8b9e-17649932be6c{fill:url(#3d7c6112-7765-4013-973a-390227875257);}.\33 fac2b9f-32e7-4284-b9b3-2c0d47577355{opacity:0.26;}.\39 df9307e-5bcc-4108-b543-88cce57b5928{clip-path:url(#6606789c-2a4b-482d-9d25-f6d67f36ae8b);}.\34 7b83a76-4995-428f-9cfd-e037870c95f4{fill:#326f7d;}.\31 83b8296-a6b8-411c-8f46-c2f2e2efe9c1{clip-path:url(#552012e6-7053-4852-817a-4fe48b0a5909);}.f6095fc9-dec7-44e1-bf0c-bc8b04f472fa{fill:url(#04c47663-3843-48e9-8779-6fcf4f5dbcbb);}.bd8e576f-6099-448a-8b26-dbc4387f533d{clip-path:url(#866fac95-3768-43ac-8671-f7242ae5eb97);}.d1aea11e-1205-453a-9a26-2b59d9320f0e{fill:url(#917eb3b6-8631-46de-b54d-17216aa5023e);}.e0d43829-b109-4132-ab79-76c3e3faef0b{opacity:0.37;}.fc63cf9e-7ddb-4d22-9dbc-6c7de26ff757{clip-path:url(#dcd07dc6-7bd5-4d13-af3d-9aac48ae2565);}.\30 7cf4307-26c7-4914-bf6b-78dac875c3c1{fill:#b56100;}.\32 cafcc9d-77f4-4dae-940b-36ccd5e16eb6{clip-path:url(#cafd22c9-558a-46bf-99cc-ead4763f3e36);}.ea36349e-4d88-4109-9f8d-63eca60de4aa{fill:url(#6bd25d72-0dc6-43dd-a87b-70bcdc8f0b43);}.a2bcf520-7519-4d4f-b4a8-59ed6ce2516e{opacity:0.33;}.\33 cb363ad-4bac-4436-8f41-12f3de3ee2ec{clip-path:url(#86c060d1-664f-42a9-ae7c-11e693654ac6);}.\31 2128098-44ff-4516-af56-cf909f1ff1fe{fill:#a8a8a8;}.\39 1c20c28-bed6-476d-b7f1-09311142cc8f{clip-path:url(#b714819c-7b11-4665-a91c-401aa0ccae70);}.\33 fa22c0e-c761-47e8-95aa-6ddbdfbdfc95{fill:url(#acb45488-002d-442d-aad1-c32c5f68ecf9);}.\33 76c87e9-f1e8-4f02-a0b0-10470cf89fd7{fill:#474bac;}.bd15caba-1069-4530-8b51-e0bf0668772c{clip-path:url(#ecff563e-c29e-439b-a5ac-df0c89a779d4);}.a1915be1-056a-44f2-a601-fb281537a9af{fill:url(#a6261f00-983c-4264-bb15-607b6d8d69d4);}.c111228f-a197-4b88-85b6-efba7b77423e{clip-path:url(#e7e6aec4-4075-47c9-a148-a795b6f5aca7);}.\36 0d9fe44-6c66-44ce-b8d3-e074a6fb8685{fill:url(#3c706ea2-a4a9-416d-9868-63801421376a);}</style><clipPath id="c0960fd1-651b-49aa-96ea-810ce9e1ad00" transform="translate(673.65 467.07)"><path class="2147d847-c08c-424d-9561-c78575f9dcb6" d="M492.56,149.12l-74.8,1365.77c-2.24,40.94,27.75,75.87,67,78l860.84,47.15,15.82.88c39.25,2.14,72.87-29.3,75.11-70.25v0l27.63-504.46L1483,721.84l58.75,3.21c39.25,2.15,72.88-29.29,75.12-70.24l18.92-345.62c2.24-40.95-27.75-75.87-67-78L1510.06,228l1.26-23c2.25-40.94-27.75-75.87-67-78l-28.67-1.57-848-46.45c-1.28-.07-2.54-.11-3.8-.11-37.6,0-69.15,30.73-71.32,70.35"/></clipPath><linearGradient id="09fa3b17-c633-4952-bcd1-6a627acff312" x1="-819.18" y1="2220.92" x2="-818.18" y2="2220.92" gradientTransform="matrix(0, 2117.8, 2117.8, 0, -4702431.5, 1734585.75)" gradientUnits="userSpaceOnUse"><stop offset="0" stop-color="#f1d83a"/><stop offset="1" stop-color="#ff8a14"/></linearGradient><clipPath id="bea0401a-e019-4970-8044-4a173c4d0632" transform="translate(673.65 467.07)"><rect class="2147d847-c08c-424d-9561-c78575f9dcb6" x="398.68" y="77.91" width="1046.51" height="1561.29"/></clipPath><clipPath id="d42a511d-2bde-49d2-ba02-24dc0610e906" transform="translate(673.65 467.07)"><polygon class="2147d847-c08c-424d-9561-c78575f9dcb6" points="1175.47 1602.84 1344.26 1612.91 1396.47 1616.02 1399.31 1568.79 1429.71 1064.36 1481.39 206.52 1433.44 203.66 1259.53 193.28 1175.47 1602.84"/></clipPath><linearGradient id="3d7c6112-7765-4013-973a-390227875257" x1="-819.18" y1="2220.91" x2="-818.18" y2="2220.91" gradientTransform="matrix(0, 1964.14, 1964.14, 0, -4360858.21, 1609096.4)" gradientUnits="userSpaceOnUse"><stop offset="0" stop-color="#fff"/><stop offset="1" stop-color="#cff9ff"/></linearGradient><clipPath id="6606789c-2a4b-482d-9d25-f6d67f36ae8b" transform="translate(673.65 467.07)"><rect class="2147d847-c08c-424d-9561-c78575f9dcb6" x="1175.46" y="193.28" width="269.73" height="1419.63"/></clipPath><clipPath id="552012e6-7053-4852-817a-4fe48b0a5909" transform="translate(673.65 467.07)"><path class="2147d847-c08c-424d-9561-c78575f9dcb6" d="M322.64,101.37l-84.5,1394.9a75.86,75.86,0,0,0,71.13,80.3l934.09,56.58a75.85,75.85,0,0,0,80.3-71.13l1.43-23.51,62.6,3.79a75.85,75.85,0,0,0,80.29-71.13l21.39-353a75.85,75.85,0,0,0-71.13-80.3l-62.6-3.79,52.52-867A75.86,75.86,0,0,0,1337,86.82L402.94,30.24c-1.56-.1-3.12-.14-4.66-.14a75.85,75.85,0,0,0-75.64,71.27"/></clipPath><linearGradient id="04c47663-3843-48e9-8779-6fcf4f5dbcbb" x1="-819.18" y1="2220.9" x2="-818.18" y2="2220.9" gradientTransform="translate(5226452.74 1927080.8) rotate(90) scale(2352.92)" xlink:href="#09fa3b17-c633-4952-bcd1-6a627acff312"/><clipPath id="866fac95-3768-43ac-8671-f7242ae5eb97" transform="translate(673.65 467.07)"><polygon class="2147d847-c08c-424d-9561-c78575f9dcb6" points="1550.82 639.79 1583.38 641.74 1604.02 297.74 1571.34 295.79 1550.82 639.79"/></clipPath><linearGradient id="917eb3b6-8631-46de-b54d-17216aa5023e" x1="-819.18" y1="2220.91" x2="-818.18" y2="2220.91" gradientTransform="matrix(20.9, 541.18, 97.43, -377.52, -197016.81, 1282482.56)" xlink:href="#3d7c6112-7765-4013-973a-390227875257"/><clipPath id="dcd07dc6-7bd5-4d13-af3d-9aac48ae2565" transform="translate(673.65 467.07)"><rect class="2147d847-c08c-424d-9561-c78575f9dcb6" x="277.16" y="120.52" width="995.96" height="1441.95"/></clipPath><clipPath id="cafd22c9-558a-46bf-99cc-ead4763f3e36" transform="translate(673.65 467.07)"><polygon class="2147d847-c08c-424d-9561-c78575f9dcb6" points="268.28 156.05 253.09 1526.38 1042.78 1535.13 1229.4 1537.19 1249.07 106.11 1119.89 104.68 999.17 103.33 268.95 95.25 268.28 156.05"/></clipPath><linearGradient id="6bd25d72-0dc6-43dd-a87b-70bcdc8f0b43" x1="-819.18" y1="2220.91" x2="-818.18" y2="2220.91" gradientTransform="matrix(0, 2741.74, 2741.74, 0, -6088403.2, 2245681.61)" xlink:href="#3d7c6112-7765-4013-973a-390227875257"/><clipPath id="86c060d1-664f-42a9-ae7c-11e693654ac6" transform="translate(673.65 467.07)"><rect class="2147d847-c08c-424d-9561-c78575f9dcb6" x="253.09" y="94.68" width="965.24" height="1440.45"/></clipPath><clipPath id="b714819c-7b11-4665-a91c-401aa0ccae70" transform="translate(673.65 467.07)"><polygon class="2147d847-c08c-424d-9561-c78575f9dcb6" points="86.53 202.65 244.21 1625.15 1214.62 1517.58 1060.72 94.66 86.53 202.65"/></clipPath><linearGradient id="acb45488-002d-442d-aad1-c32c5f68ecf9" x1="-819.18" y1="2220.91" x2="-818.18" y2="2220.91" gradientTransform="matrix(0, 2745.22, 2745.22, 0, -6096232.99, 2248576.97)" xlink:href="#3d7c6112-7765-4013-973a-390227875257"/><clipPath id="ecff563e-c29e-439b-a5ac-df0c89a779d4" transform="translate(673.65 467.07)"><polygon class="2147d847-c08c-424d-9561-c78575f9dcb6" points="339.04 957.14 303.89 934.78 294.35 949.78 343.48 981.02 417.64 880.65 403.35 870.09 339.04 957.14"/></clipPath><linearGradient id="a6261f00-983c-4264-bb15-607b6d8d69d4" x1="-819.18" y1="2220.89" x2="-818.18" y2="2220.89" gradientTransform="matrix(0, 173.13, 173.13, 0, -384136.08, 142678.14)" gradientUnits="userSpaceOnUse"><stop offset="0" stop-color="#ffed4d"/><stop offset="1" stop-color="#ff9326"/></linearGradient><clipPath id="e7e6aec4-4075-47c9-a148-a795b6f5aca7" transform="translate(673.65 467.07)"><polygon class="2147d847-c08c-424d-9561-c78575f9dcb6" points="365.88 1201.5 330.73 1179.15 321.19 1194.14 370.32 1225.39 444.49 1125.02 430.19 1114.45 365.88 1201.5"/></clipPath><linearGradient id="3c706ea2-a4a9-416d-9868-63801421376a" x1="-819.18" y1="2220.89" x2="-818.18" y2="2220.89" gradientTransform="matrix(0, 173.13, 173.13, 0, -384109.34, 142922.22)" xlink:href="#a6261f00-983c-4264-bb15-607b6d8d69d4"/></defs><title>Document abstract2</title><g class="efa0ec54-e57b-4381-948a-6060c5eb6150"><rect class="59298050-0f92-4474-bd55-143fe2d2687e" x="241.39" y="-47.9" width="1570.79" height="1817.65" transform="translate(492.92 747.12) rotate(-14.29)"/></g><g class="36f908bf-1dc8-475d-8c3d-d33204350c82"><g class="4082f56d-5f1b-458f-aeb4-5152a9bcdd67"><path class="9c816dc6-a027-4f62-8af6-346cb29d0910" d="M1445.2,1065.32l-27.63,504.46c-1.35,0-2.69,0-4-.13l-62.6-3.79-1.42,23.51a75.51,75.51,0,0,1-22.88,49.83L465.8,1592.05c-39.24-2.15-69.23-37.08-67-78L473.6,148.26c2.24-40.95,35.87-72.4,75.12-70.24l848,46.45a75.82,75.82,0,0,1,37.3,70l-52.51,867,62.59,3.79c.38,0,.75,0,1.12.09" transform="translate(673.65 467.07)"/></g></g><g class="08fd3970-2b09-4141-a33e-8d9192d88deb"><rect class="09ce9d1f-1751-4146-8b9e-17649932be6c" x="791.89" y="236.05" width="1073.08" height="1337.19" transform="translate(395.17 1403.11) rotate(-35.37)"/></g><g class="3fac2b9f-32e7-4284-b9b3-2c0d47577355"><g class="9df9307e-5bcc-4108-b543-88cce57b5928"><path class="47b83a76-4995-428f-9cfd-e037870c95f4" d="M1445.2,1065.32l-27.63,504.46c-1.35,0-2.69,0-4-.13l-14.22-.86-48.38-2.93-1.42,23.51a75.42,75.42,0,0,1-5.25,23.54l-168.79-10.07,84.06-1409.56,173.91,10.38-52,857.78,48.22,2.92,14.37.87c.38,0,.75,0,1.12.09" transform="translate(673.65 467.07)"/></g></g><g class="183b8296-a6b8-411c-8f46-c2f2e2efe9c1"><rect class="f6095fc9-dec7-44e1-bf0c-bc8b04f472fa" x="-54" y="-164.61" width="1835.5" height="1995.01" transform="translate(394.91 933.23) rotate(-26.16)"/></g><g class="bd8e576f-6099-448a-8b26-dbc4387f533d"><polygon class="d1aea11e-1205-453a-9a26-2b59d9320f0e" points="2270.74 583.54 2289.29 1063.77 2231.39 1288.11 2212.85 807.88 2270.74 583.54"/></g><g class="e0d43829-b109-4132-ab79-76c3e3faef0b"><g class="fc63cf9e-7ddb-4d22-9dbc-6c7de26ff757"><polygon class="07cf4307-26c7-4914-bf6b-78dac875c3c1" points="1946.77 598.45 1927.1 2029.54 950.8 2018.72 966.67 587.59 1946.77 598.45"/></g></g><g class="2cafcc9d-77f4-4dae-940b-36ccd5e16eb6"><rect class="ea36349e-4d88-4109-9f8d-63eca60de4aa" x="-79.29" y="-59.42" width="1660.75" height="1751.28" transform="matrix(0.8, -0.6, 0.6, 0.8, 334.56, 1078.62)"/></g><g class="a2bcf520-7519-4d4f-b4a8-59ed6ce2516e"><g class="3cb363ad-4bac-4436-8f41-12f3de3ee2ec"><polygon class="12128098-44ff-4516-af56-cf909f1ff1fe" points="1891.98 1989.53 1716.42 2002.2 926.74 1993.44 941.93 623.11 1672.81 570.4 1792.84 561.75 1793.54 571.75 1891.98 1989.53"/></g></g><g class="91c20c28-bed6-476d-b7f1-09311142cc8f"><rect class="3fa22c0e-c761-47e8-95aa-6ddbdfbdfc95" x="-279.63" y="-86.68" width="1860.4" height="1893.17" transform="translate(266.44 1117.7) rotate(-41.7)"/></g><rect class="376c87e9-f1e8-4f02-a0b0-10470cf89fd7" x="259.48" y="525.39" width="751.26" height="14.23" transform="translate(618.85 540.28) rotate(-6.33)"/><rect class="376c87e9-f1e8-4f02-a0b0-10470cf89fd7" x="351.7" y="400.7" width="508.31" height="14.23" transform="translate(632.4 536.3) rotate(-6.33)"/><rect class="376c87e9-f1e8-4f02-a0b0-10470cf89fd7" x="264.94" y="574.51" width="758.59" height="14.23" transform="translate(613.49 541.58) rotate(-6.33)"/><rect class="376c87e9-f1e8-4f02-a0b0-10470cf89fd7" x="268.71" y="624.12" width="760.32" height="14.23" transform="translate(608.05 542.4) rotate(-6.33)"/><rect class="376c87e9-f1e8-4f02-a0b0-10470cf89fd7" x="274.84" y="671.59" width="760.32" height="14.23" transform="translate(602.86 543.36) rotate(-6.33)"/><rect class="376c87e9-f1e8-4f02-a0b0-10470cf89fd7" x="275.5" y="739.6" width="544.49" height="14.23" transform="translate(594.72 531.96) rotate(-6.33)"/><rect class="376c87e9-f1e8-4f02-a0b0-10470cf89fd7" x="433" y="872.35" width="267.08" height="14.23" transform="translate(580.2 534.84) rotate(-6.33)"/><rect class="376c87e9-f1e8-4f02-a0b0-10470cf89fd7" x="437.36" y="901.54" width="636.09" height="14.23" transform="translate(578.14 555.82) rotate(-6.33)"/><rect class="376c87e9-f1e8-4f02-a0b0-10470cf89fd7" x="441.41" y="951.14" width="637.54" height="14.23" transform="translate(572.7 556.65) rotate(-6.33)"/><rect class="376c87e9-f1e8-4f02-a0b0-10470cf89fd7" x="454.69" y="1111.76" width="267.08" height="14.23" transform="translate(553.96 538.68) rotate(-6.33)"/><rect class="376c87e9-f1e8-4f02-a0b0-10470cf89fd7" x="459.06" y="1140.95" width="636.09" height="14.23" transform="translate(551.9 559.67) rotate(-6.33)"/><rect class="376c87e9-f1e8-4f02-a0b0-10470cf89fd7" x="463.1" y="1190.54" width="637.54" height="14.23" transform="translate(546.45 560.5) rotate(-6.33)"/><path class="376c87e9-f1e8-4f02-a0b0-10470cf89fd7" d="M277.86,900.17l11.86,113.64,120.38-12.56L398.24,887.6Zm115.88,88.58-90.6,9.46-8.93-85.55,90.6-9.46Z" transform="translate(673.65 467.07)"/><g class="bd15caba-1069-4530-8b51-e0bf0668772c"><rect class="a1915be1-056a-44f2-a601-fb281537a9af" x="282.3" y="856.27" width="147.4" height="138.58" transform="matrix(0.97, -0.25, 0.25, 0.97, 450.48, 587.67)"/></g><path class="376c87e9-f1e8-4f02-a0b0-10470cf89fd7" d="M304.7,1144.53l11.86,113.65,120.38-12.57L425.08,1132Zm115.89,88.58L330,1242.57,321.05,1157l90.61-9.45Z" transform="translate(673.65 467.07)"/><g class="c111228f-a197-4b88-85b6-efba7b77423e"><rect class="60d9fe44-6c66-44ce-b8d3-e074a6fb8685" x="309.14" y="1100.63" width="147.4" height="138.58" transform="translate(389.36 602.47) rotate(-14.7)"/></g></svg>