<?xml version="1.0" encoding="utf-8"?>
<!-- Generator: Adobe Illustrator 22.1.0, SVG Export Plug-In . SVG Version: 6.00 Build 0)  -->
<svg version="1.1" id="Layer_1" xmlns="http://www.w3.org/2000/svg" xmlns:xlink="http://www.w3.org/1999/xlink" x="0px" y="0px"
	 viewBox="0 0 1607 1675.2" style="enable-background:new 0 0 1607 1675.2;" xml:space="preserve">
<style type="text/css">
	.st0{clip-path:url(#SVGID_2_);fill:url(#SVGID_3_);}
	.st1{opacity:0.4392;clip-path:url(#SVGID_5_);}
	.st2{clip-path:url(#SVGID_7_);fill:#BA620F;}
	.st3{clip-path:url(#SVGID_9_);fill:url(#SVGID_10_);}
	.st4{opacity:0.2588;clip-path:url(#SVGID_12_);}
	.st5{clip-path:url(#SVGID_14_);fill:#326F7D;}
	.st6{clip-path:url(#SVGID_16_);fill:url(#SVGID_17_);}
	.st7{clip-path:url(#SVGID_19_);fill:url(#SVGID_20_);}
	.st8{opacity:0.3686;clip-path:url(#SVGID_22_);}
	.st9{clip-path:url(#SVGID_24_);fill:#B56100;}
	.st10{clip-path:url(#SVGID_26_);fill:url(#SVGID_27_);}
	.st11{opacity:0.3294;clip-path:url(#SVGID_29_);}
	.st12{clip-path:url(#SVGID_31_);fill:#A8A8A8;}
	.st13{clip-path:url(#SVGID_33_);fill:url(#SVGID_34_);}
	.st14{clip-path:url(#SVGID_36_);fill:#474BAC;}
	.st15{clip-path:url(#SVGID_38_);fill:url(#SVGID_39_);}
	.st16{clip-path:url(#SVGID_41_);fill:#474BAC;}
	.st17{clip-path:url(#SVGID_43_);fill:url(#SVGID_44_);}
</style>
<g>
	<defs>
		<path id="SVGID_1_" d="M439.3,149.1l-74.8,1365.8c-2.2,40.9,27.7,75.9,67,78l860.8,47.2l15.8,0.9c39.2,2.1,72.9-29.3,75.1-70.2
			v-0.1l27.6-504.5l18.9-344.3l58.7,3.2c39.3,2.2,72.9-29.3,75.1-70.2l18.9-345.6c2.2-40.9-27.8-75.9-67-78l-58.7-3.2l1.3-23
			c2.2-40.9-27.8-75.9-67-78l-28.7-1.6l-848-46.5c-1.3-0.1-2.5-0.1-3.8-0.1C473.1,78.8,441.5,109.5,439.3,149.1"/>
	</defs>
	<clipPath id="SVGID_2_">
		<use xlink:href="#SVGID_1_"  style="overflow:visible;"/>
	</clipPath>
	
		<linearGradient id="SVGID_3_" gradientUnits="userSpaceOnUse" x1="-872.3929" y1="2220.9177" x2="-871.3929" y2="2220.9177" gradientTransform="matrix(522.6991 2052.2817 2052.2817 -522.6991 -4101254 2951038.5)">
		<stop  offset="0" style="stop-color:#F1D83A"/>
		<stop  offset="1" style="stop-color:#FF8A14"/>
	</linearGradient>
	<polygon class="st0" points="1510.4,-213.6 1959,1547.8 436.8,1935.5 -11.8,174.1 	"/>
</g>
<g>
	<defs>
		<rect id="SVGID_4_" x="-873.4" y="-770.1" width="3000" height="2990"/>
	</defs>
	<clipPath id="SVGID_5_">
		<use xlink:href="#SVGID_4_"  style="overflow:visible;"/>
	</clipPath>
	<g class="st1">
		<g>
			<defs>
				<rect id="SVGID_6_" x="345.5" y="77.9" width="1046.5" height="1561.3"/>
			</defs>
			<clipPath id="SVGID_7_">
				<use xlink:href="#SVGID_6_"  style="overflow:visible;"/>
			</clipPath>
			<path class="st2" d="M1392,1065.3l-27.6,504.5c-1.3,0-2.7,0-4-0.1l-62.6-3.8l-1.4,23.5c-1.2,19.7-9.8,37.1-22.9,49.8l-860.8-47.2
				c-39.2-2.2-69.2-37.1-67-78l74.8-1365.8c2.2-40.9,35.9-72.4,75.1-70.2l848,46.5c23.8,14,39.1,40.5,37.3,70l-52.5,867l62.6,3.8
				C1391.2,1065.3,1391.6,1065.3,1392,1065.3"/>
		</g>
	</g>
</g>
<g>
	<defs>
		<polygon id="SVGID_8_" points="1122.2,1602.8 1291,1612.9 1343.3,1616 1346.1,1568.8 1376.5,1064.4 1428.2,206.5 1380.2,203.7 
			1206.3,193.3 		"/>
	</defs>
	<clipPath id="SVGID_9_">
		<use xlink:href="#SVGID_8_"  style="overflow:visible;"/>
	</clipPath>
	
		<linearGradient id="SVGID_10_" gradientUnits="userSpaceOnUse" x1="-872.3929" y1="2220.9116" x2="-871.3929" y2="2220.9116" gradientTransform="matrix(1137.0529 1601.5511 1601.5511 -1137.0529 -2564126.5 3922739.75)">
		<stop  offset="0" style="stop-color:#FFFFFF"/>
		<stop  offset="1" style="stop-color:#CFF9FF"/>
	</linearGradient>
	<polygon class="st3" points="1325.6,48.9 2099.8,1139.2 1224.8,1760.4 450.7,670.1 	"/>
</g>
<g>
	<defs>
		<rect id="SVGID_11_" x="-873.4" y="-770.1" width="3000" height="2990"/>
	</defs>
	<clipPath id="SVGID_12_">
		<use xlink:href="#SVGID_11_"  style="overflow:visible;"/>
	</clipPath>
	<g class="st4">
		<g>
			<defs>
				<rect id="SVGID_13_" x="1122.2" y="193.3" width="269.7" height="1419.6"/>
			</defs>
			<clipPath id="SVGID_14_">
				<use xlink:href="#SVGID_13_"  style="overflow:visible;"/>
			</clipPath>
			<path class="st5" d="M1392,1065.3l-27.6,504.5c-1.3,0-2.7,0-4-0.1l-14.2-0.9l-48.4-2.9l-1.4,23.5c-0.5,8.3-2.3,16.2-5.2,23.5
				l-168.8-10.1l84.1-1409.6l173.9,10.4l-52,857.8l48.2,2.9l14.4,0.9C1391.2,1065.3,1391.6,1065.3,1392,1065.3"/>
		</g>
	</g>
</g>
<g>
	<defs>
		<path id="SVGID_15_" d="M269.4,101.4l-84.5,1394.9c-2.5,41.8,29.3,77.8,71.1,80.3l934.1,56.6c41.8,2.5,77.8-29.3,80.3-71.1
			l1.4-23.5l62.6,3.8c41.8,2.5,77.8-29.3,80.3-71.1l21.4-353c2.5-41.8-29.3-77.8-71.1-80.3l-62.6-3.8l52.5-867
			c2.5-41.8-29.3-77.8-71.1-80.3L349.7,30.2c-1.6-0.1-3.1-0.1-4.7-0.1C305.3,30.1,271.9,61.1,269.4,101.4"/>
	</defs>
	<clipPath id="SVGID_16_">
		<use xlink:href="#SVGID_15_"  style="overflow:visible;"/>
	</clipPath>
	
		<linearGradient id="SVGID_17_" gradientUnits="userSpaceOnUse" x1="-872.3931" y1="2220.8967" x2="-871.3931" y2="2220.8967" gradientTransform="matrix(1037.4226 2111.8665 -2111.8665 1037.4226 5595556.5 -461879.9375)">
		<stop  offset="0" style="stop-color:#F1D83A"/>
		<stop  offset="1" style="stop-color:#FF8A14"/>
	</linearGradient>
	<polygon class="st6" points="-453,342.2 426.6,2132.8 2074.1,1323.6 1194.5,-467.1 	"/>
</g>
<g>
	<defs>
		<polygon id="SVGID_18_" points="1497.6,639.8 1530.2,641.7 1550.8,297.7 1518.1,295.8 		"/>
	</defs>
	<clipPath id="SVGID_19_">
		<use xlink:href="#SVGID_18_"  style="overflow:visible;"/>
	</clipPath>
	
		<linearGradient id="SVGID_20_" gradientUnits="userSpaceOnUse" x1="-872.398" y1="2220.9067" x2="-871.398" y2="2220.9067" gradientTransform="matrix(20.8988 541.1771 97.4284 -377.5222 -196631.4844 1310815.625)">
		<stop  offset="0" style="stop-color:#FFFFFF"/>
		<stop  offset="1" style="stop-color:#CFF9FF"/>
	</linearGradient>
	<polygon class="st7" points="1543.9,116.5 1562.4,596.7 1504.5,821 1486,340.8 	"/>
</g>
<g>
	<defs>
		<rect id="SVGID_21_" x="-873.4" y="-770.1" width="3000" height="2990"/>
	</defs>
	<clipPath id="SVGID_22_">
		<use xlink:href="#SVGID_21_"  style="overflow:visible;"/>
	</clipPath>
	<g class="st8">
		<g>
			<defs>
				<rect id="SVGID_23_" x="223.9" y="120.5" width="996" height="1441.9"/>
			</defs>
			<clipPath id="SVGID_24_">
				<use xlink:href="#SVGID_23_"  style="overflow:visible;"/>
			</clipPath>
			<polygon class="st9" points="1219.9,131.4 1200.2,1562.5 223.9,1551.7 239.8,120.5 			"/>
		</g>
	</g>
</g>
<g>
	<defs>
		<polygon id="SVGID_25_" points="215.1,156 199.9,1526.4 989.6,1535.1 1176.2,1537.2 1195.8,106.1 1066.7,104.7 945.9,103.3 
			215.7,95.2 		"/>
	</defs>
	<clipPath id="SVGID_26_">
		<use xlink:href="#SVGID_25_"  style="overflow:visible;"/>
	</clipPath>
	
		<linearGradient id="SVGID_27_" gradientUnits="userSpaceOnUse" x1="-872.3929" y1="2220.9119" x2="-871.3929" y2="2220.9119" gradientTransform="matrix(1640.3401 2196.9072 2196.9072 -1640.3401 -3448075 5559554)">
		<stop  offset="0" style="stop-color:#FFFFFF"/>
		<stop  offset="1" style="stop-color:#CFF9FF"/>
	</linearGradient>
	<polygon class="st10" points="839.3,-382.2 1887.1,1021.1 556.4,2014.7 -491.4,611.4 	"/>
</g>
<g>
	<defs>
		<rect id="SVGID_28_" x="-873.4" y="-770.1" width="3000" height="2990"/>
	</defs>
	<clipPath id="SVGID_29_">
		<use xlink:href="#SVGID_28_"  style="overflow:visible;"/>
	</clipPath>
	<g class="st11">
		<g>
			<defs>
				<rect id="SVGID_30_" x="199.9" y="94.7" width="965.2" height="1440.4"/>
			</defs>
			<clipPath id="SVGID_31_">
				<use xlink:href="#SVGID_30_"  style="overflow:visible;"/>
			</clipPath>
			<polygon class="st12" points="1165.1,1522.5 989.6,1535.1 199.9,1526.4 215.1,156 945.9,103.3 1066,94.7 1066.7,104.7 			"/>
		</g>
	</g>
</g>
<g>
	<defs>
		<polygon id="SVGID_32_" points="33.3,202.6 191,1625.2 1161.4,1517.6 1007.5,94.7 		"/>
	</defs>
	<clipPath id="SVGID_33_">
		<use xlink:href="#SVGID_32_"  style="overflow:visible;"/>
	</clipPath>
	
		<linearGradient id="SVGID_34_" gradientUnits="userSpaceOnUse" x1="-872.3929" y1="2220.9114" x2="-871.3929" y2="2220.9114" gradientTransform="matrix(1826.1708 2049.7114 2049.7114 -1826.1708 -2959221.75 5843957.5)">
		<stop  offset="0" style="stop-color:#FFFFFF"/>
		<stop  offset="1" style="stop-color:#CFF9FF"/>
	</linearGradient>
	<polygon class="st13" points="662.2,-465.6 1921.6,947.9 532.5,2185.5 -726.9,771.9 	"/>
</g>
<g>
	<defs>
		<rect id="SVGID_35_" x="-873.4" y="-770.1" width="3000" height="2990"/>
	</defs>
	<clipPath id="SVGID_36_">
		<use xlink:href="#SVGID_35_"  style="overflow:visible;"/>
	</clipPath>
	
		<rect x="206.3" y="525.4" transform="matrix(0.9939 -0.1102 0.1102 0.9939 -55.1233 67.3474)" class="st14" width="751.3" height="14.2"/>
	
		<rect x="298.5" y="400.7" transform="matrix(0.9939 -0.1102 0.1102 0.9939 -41.567 63.3705)" class="st14" width="508.3" height="14.2"/>
	
		<rect x="211.7" y="574.5" transform="matrix(0.9939 -0.1102 0.1102 0.9939 -60.4796 68.6531)" class="st14" width="758.6" height="14.2"/>
	
		<rect x="215.5" y="624.1" transform="matrix(0.9939 -0.1102 0.1102 0.9939 -65.9206 69.4692)" class="st14" width="760.3" height="14.2"/>
	
		<rect x="221.6" y="671.6" transform="matrix(0.9939 -0.1102 0.1102 0.9939 -71.1089 70.4292)" class="st14" width="760.3" height="14.2"/>
	
		<rect x="222.3" y="739.6" transform="matrix(0.9939 -0.1102 0.1102 0.9939 -79.2541 59.0266)" class="st14" width="544.5" height="14.2"/>
	
		<rect x="379.8" y="872.4" transform="matrix(0.9939 -0.1102 0.1102 0.9939 -93.7655 61.9051)" class="st14" width="267.1" height="14.2"/>
	
		<rect x="384.1" y="901.5" transform="matrix(0.9939 -0.1102 0.1102 0.9939 -95.8314 82.8904)" class="st14" width="636.1" height="14.2"/>
	
		<rect x="388.2" y="951.1" transform="matrix(0.9939 -0.1102 0.1102 0.9939 -101.2663 83.7176)" class="st14" width="637.5" height="14.2"/>
	
		<rect x="401.5" y="1111.8" transform="matrix(0.9939 -0.1102 0.1102 0.9939 -120.0083 65.7521)" class="st14" width="267.1" height="14.2"/>
	
		<rect x="405.8" y="1140.9" transform="matrix(0.9939 -0.1102 0.1102 0.9939 -122.0742 86.7374)" class="st14" width="636.1" height="14.2"/>
	
		<rect x="409.9" y="1190.5" transform="matrix(0.9939 -0.1102 0.1102 0.9939 -127.5168 87.5706)" class="st14" width="637.5" height="14.2"/>
	<path class="st14" d="M224.6,900.2l11.9,113.6l120.4-12.6L345,887.6L224.6,900.2z M340.5,988.7l-90.6,9.5l-8.9-85.5l90.6-9.5
		L340.5,988.7z"/>
</g>
<g>
	<defs>
		<polygon id="SVGID_37_" points="285.8,957.1 250.7,934.8 241.1,949.8 290.3,981 364.4,880.7 350.1,870.1 		"/>
	</defs>
	<clipPath id="SVGID_38_">
		<use xlink:href="#SVGID_37_"  style="overflow:visible;"/>
	</clipPath>
	
		<linearGradient id="SVGID_39_" gradientUnits="userSpaceOnUse" x1="-872.4017" y1="2220.8916" x2="-871.4017" y2="2220.8916" gradientTransform="matrix(43.9222 167.4609 167.4609 -43.9222 -333309.4063 244498.4531)">
		<stop  offset="0" style="stop-color:#FFED4D"/>
		<stop  offset="1" style="stop-color:#FF9326"/>
	</linearGradient>
	<polygon class="st15" points="356.5,839.8 391.6,973.9 249.1,1011.3 213.9,877.2 	"/>
</g>
<g>
	<defs>
		<rect id="SVGID_40_" x="-873.4" y="-770.1" width="3000" height="2990"/>
	</defs>
	<clipPath id="SVGID_41_">
		<use xlink:href="#SVGID_40_"  style="overflow:visible;"/>
	</clipPath>
	<path class="st16" d="M251.5,1144.5l11.9,113.6l120.4-12.6L371.9,1132L251.5,1144.5z M367.4,1233.1l-90.6,9.5l-8.9-85.5l90.6-9.5
		L367.4,1233.1z"/>
</g>
<g>
	<defs>
		<polygon id="SVGID_42_" points="312.7,1201.5 277.5,1179.1 268,1194.1 317.1,1225.4 391.3,1125 377,1114.5 		"/>
	</defs>
	<clipPath id="SVGID_43_">
		<use xlink:href="#SVGID_42_"  style="overflow:visible;"/>
	</clipPath>
	
		<linearGradient id="SVGID_44_" gradientUnits="userSpaceOnUse" x1="-872.4017" y1="2220.8916" x2="-871.4017" y2="2220.8916" gradientTransform="matrix(43.9222 167.4609 167.4609 -43.9222 -333282.5625 244742.8281)">
		<stop  offset="0" style="stop-color:#FFED4D"/>
		<stop  offset="1" style="stop-color:#FF9326"/>
	</linearGradient>
	<polygon class="st17" points="383.3,1084.2 418.5,1218.2 275.9,1255.6 240.8,1121.6 	"/>
</g>
</svg>
